<?xml version="1.0" encoding="UTF-8"?>
<svg version="1.1" xmlns="http://www.w3.org/2000/svg" width="512" height="512">
<path d="M0 0 C1.83038818 -0.00574036 1.83038818 -0.00574036 3.69775391 -0.01159668 C6.27312039 -0.01431401 8.84851456 -0.00696555 11.42382812 0.00976562 C15.36130422 0.03117553 19.29695553 0.00995544 23.234375 -0.015625 C25.73958735 -0.01298169 28.24479857 -0.00785667 30.75 0 C31.9251416 -0.00809692 33.1002832 -0.01619385 34.31103516 -0.02453613 C40.43762638 0.0456037 44.72117305 0.10272737 49.375 4.53125 C53.9484996 9.89950009 53.94824015 14.30196043 53.89257812 21.03125 C53.90309204 22.59818604 53.90309204 22.59818604 53.91381836 24.19677734 C53.93139022 27.64187381 53.91977782 31.08614551 53.90625 34.53125 C53.90894513 36.9296891 53.91282772 39.32812714 53.91784668 41.7265625 C53.92374066 46.75010595 53.91518159 51.77336467 53.89648438 56.796875 C53.87369537 63.23314072 53.88681892 69.66873922 53.91077423 76.10498047 C53.92523461 81.05669168 53.920625 86.00824495 53.91026306 90.95996094 C53.90759647 93.33300862 53.91086314 95.70607068 53.92018127 98.07910156 C53.93035031 101.39687028 53.91483934 104.71356145 53.89257812 108.03125 C53.90067505 109.01013184 53.90877197 109.98901367 53.91711426 110.99755859 C53.84640531 116.69164934 53.20951226 120.03040326 49.375 124.53125 C43.89925562 129.74189882 37.88363352 129.11165194 30.75 129.0625 C29.52974121 129.0663269 28.30948242 129.07015381 27.05224609 129.07409668 C24.47687961 129.07681401 21.90148544 129.06946555 19.32617188 129.05273438 C15.38869578 129.03132447 11.45304447 129.05254456 7.515625 129.078125 C5.01041265 129.07548169 2.50520143 129.07035667 0 129.0625 C-1.1751416 129.07059692 -2.3502832 129.07869385 -3.56103516 129.08703613 C-9.86844989 129.01482615 -13.87885547 128.85699928 -18.625 124.53125 C-21.1011458 121.46864862 -22.53191331 119.60174691 -22.875 115.65625 C-22.7925 114.955 -22.71 114.25375 -22.625 113.53125 C-27.63204107 113.63018166 -30.52743623 113.95397638 -34.16015625 117.5234375 C-35.35019121 118.80461482 -36.52536123 120.09971565 -37.6875 121.40625 C-48.87666281 133.21034051 -61.01699528 141.14778164 -75.5078125 148.4375 C-76.88030479 149.13522695 -78.25271369 149.83311802 -79.625 150.53125 C-80.94757813 151.20027344 -80.94757813 151.20027344 -82.296875 151.8828125 C-85.66581857 154.26820543 -88.11160522 157.25343374 -90.75 160.40625 C-91.318396 161.07390381 -91.88679199 161.74155762 -92.47241211 162.42944336 C-94.1967102 164.45776053 -95.91147481 166.49382982 -97.625 168.53125 C-98.58146189 169.66063868 -99.53845629 170.7895767 -100.49609375 171.91796875 C-100.9439624 172.44664551 -101.39183105 172.97532227 -101.85327148 173.52001953 C-102.74357447 174.5701372 -103.6350164 175.6192903 -104.52758789 176.66748047 C-106.93723684 179.50457032 -109.30218081 182.36859491 -111.625 185.27734375 C-118.04284755 193.22046796 -123.36780208 199.5591542 -134.0078125 200.984375 C-144.41867805 201.47905976 -151.4132048 198.72253421 -159.0625 191.78125 C-163.87563666 186.60834353 -165.33025176 181.57698182 -166 174.65625 C-165.14779786 156.68898824 -153.90306914 142.8203075 -141.77734375 130.65625 C-137.07411859 125.77060268 -137.07411859 125.77060268 -135.4140625 119.41796875 C-135.89810162 115.99277668 -136.68871199 112.86415584 -137.625 109.53125 C-138.64916561 105.20344792 -139.63724153 100.86749347 -140.625 96.53125 C-155.35151359 91.35933591 -155.35151359 91.35933591 -170.18115234 92.65380859 C-174.42321364 95.89842007 -177.41769833 100.00792597 -180.25561523 104.49169922 C-181.65815181 106.58062605 -183.21045237 108.31563682 -184.9296875 110.1484375 C-187.71838923 113.3200263 -188.37797633 115.60972338 -188.4375 119.90625 C-188.58296178 125.48921178 -188.58296178 125.48921178 -189.625 126.53125 C-195.83451767 126.20443328 -200.25226592 124.60342507 -205.625 121.53125 C-206.3214178 115.64179086 -206.95124166 110.00623128 -204.078125 104.64453125 C-202.17731844 102.32402105 -200.21271997 100.13565994 -198.09326172 98.01318359 C-196.47975889 96.38465646 -194.92807393 94.70932482 -193.37890625 93.01953125 C-191.15177916 90.59076062 -188.90695867 88.18106022 -186.64453125 85.78515625 C-183.69736461 82.64532871 -180.93499364 79.37970982 -178.28515625 75.984375 C-175.50974758 73.55507612 -172.41189819 72.45271743 -168.69322205 72.6161499 C-166.48235298 72.93591793 -164.30900133 73.3460126 -162.12109375 73.796875 C-161.32018814 73.95033386 -160.51928253 74.10379272 -159.69410706 74.26190186 C-158.00765722 74.58792108 -156.32259178 74.92117535 -154.63891602 75.26123047 C-152.07003885 75.77972837 -149.49770754 76.27653 -146.92382812 76.76953125 C-145.28100419 77.08988787 -143.63841707 77.41146176 -141.99609375 77.734375 C-141.23139267 77.88344299 -140.46669159 78.03251099 -139.67881775 78.18609619 C-128.51290528 80.45404179 -128.51290528 80.45404179 -124.625 85.53125 C-123.73984392 88.25981454 -123.06032732 90.79475216 -122.484375 93.5859375 C-122.31246643 94.36510529 -122.14055786 95.14427307 -121.96343994 95.947052 C-121.60371488 97.5912773 -121.25113649 99.23708043 -120.90527344 100.88427734 C-120.37755311 103.39410745 -119.82750539 105.89821276 -119.2734375 108.40234375 C-118.92575736 110.00492124 -118.57936057 111.60777779 -118.234375 113.2109375 C-118.07193298 113.95487762 -117.90949097 114.69881775 -117.74212646 115.46530151 C-115.64442776 125.54220306 -115.64442776 125.54220306 -117.5859375 129.48046875 C-118.28589844 130.34091797 -118.28589844 130.34091797 -119 131.21875 C-119.54914063 131.899375 -120.09828125 132.58 -120.6640625 133.28125 C-122.85961204 135.80044628 -125.11048859 138.26136223 -127.375 140.71875 C-142.19298347 156.41238527 -142.19298347 156.41238527 -147.625 176.53125 C-145.39523837 179.51244541 -145.39523837 179.51244541 -142.625 181.53125 C-142.295 181.86125 -141.965 182.19125 -141.625 182.53125 C-136.47742852 183.28802984 -136.47742852 183.28802984 -131.85546875 181.35546875 C-129.97123919 179.50654092 -128.29699086 177.57479438 -126.625 175.53125 C-125.95984375 174.73203125 -125.2946875 173.9328125 -124.609375 173.109375 C-123.10780167 171.2837211 -121.61622671 169.44981433 -120.1328125 167.609375 C-116.91609044 163.66112425 -113.61797974 159.7879515 -110.26977539 155.95068359 C-107.66445751 152.95716558 -105.14723508 149.93989452 -102.75390625 146.7734375 C-96.53981206 138.72107333 -91.11626357 134.75111902 -81.640625 131.1484375 C-65.86894481 125.09229377 -52.38281076 112.1897098 -41.515625 99.61328125 C-39.625 97.53125 -39.625 97.53125 -37.625 96.53125 C-32.675 96.53125 -27.725 96.53125 -22.625 96.53125 C-22.625 72.77125 -22.625 49.01125 -22.625 24.53125 C-48.07234899 24.62178545 -48.07234899 24.62178545 -73.51953125 24.74023438 C-83.89597975 24.79473577 -94.27237868 24.84614798 -104.64892578 24.87768555 C-112.20593602 24.90066774 -119.76281631 24.93406822 -127.31972349 24.97995156 C-131.3206375 25.00388085 -135.32142284 25.02261153 -139.32240677 25.02886391 C-143.08993691 25.03491614 -146.85713783 25.0549207 -150.62454605 25.08552551 C-152.00557671 25.09430356 -153.3866504 25.09802879 -154.76770782 25.09625816 C-156.65740183 25.09460069 -158.5470811 25.11310108 -160.43667603 25.13252258 C-161.49305079 25.13713155 -162.54942554 25.14174051 -163.63781166 25.14648914 C-169.59730271 25.91409353 -173.25007021 28.76275409 -177.0625 33.21875 C-177.83851563 34.11464844 -178.61453125 35.01054688 -179.4140625 35.93359375 C-180.50847656 37.21943359 -180.50847656 37.21943359 -181.625 38.53125 C-182.72772818 39.78251919 -183.83179408 41.03261136 -184.9375 42.28125 C-187.08903227 44.74582276 -189.2199492 47.22698243 -191.33984375 49.71875 C-196.24073472 55.47388792 -201.1666089 61.18052225 -206.3125 66.71875 C-210.63085794 71.38033003 -214.6950005 76.185531 -218.65234375 81.15625 C-220.625 83.53125 -220.625 83.53125 -222.81640625 85.59375 C-226.50792668 89.54838096 -225.77309908 94.70130315 -225.80078125 99.83984375 C-225.82397336 101.49024722 -225.84809045 103.1406379 -225.87304688 104.79101562 C-225.90817861 107.38265641 -225.93752623 109.97382364 -225.95092773 112.56567383 C-225.96642342 115.07430606 -226.00662946 117.5815734 -226.05078125 120.08984375 C-226.04887283 120.86081894 -226.04696442 121.63179413 -226.04499817 122.4261322 C-226.16050535 127.52160377 -227.23027432 129.81835557 -230.625 133.53125 C-235.0972625 142.63498754 -232.56898242 151.927784 -229.48071289 161.02581787 C-228.70730373 163.24033953 -227.91718351 165.44838284 -227.125 167.65625 C-226.3362406 169.9075108 -225.55264748 172.16049616 -224.77111816 174.41427612 C-224.28682384 175.80509414 -223.79735357 177.19412326 -223.30212402 178.58108521 C-221.625 183.31634534 -221.625 183.31634534 -221.625 185.53125 C-227.50144708 185.32137689 -230.9230543 184.12381699 -235.66796875 180.6875 C-244.00111612 171.50606817 -243.34828615 162.10331574 -243.25390625 150.33984375 C-243.25473607 148.46614952 -243.25719969 146.59245537 -243.26121521 144.71876526 C-243.26406424 140.80422893 -243.24945841 136.8902676 -243.22192383 132.97583008 C-243.18781899 127.97351556 -243.19387569 122.97222679 -243.2125864 117.96986294 C-243.22318425 114.10491983 -243.21419371 110.24021299 -243.19920158 106.37529182 C-243.19404134 104.53142054 -243.1944752 102.68752438 -243.20074654 100.84365654 C-243.20623358 98.26169127 -243.18571454 95.68116609 -243.15844727 93.09936523 C-243.16497314 92.34745407 -243.17149902 91.59554291 -243.17822266 90.82084656 C-243.03944413 83.04243908 -239.77881677 77.27410861 -234.4375 71.71875 C-231.26930194 68.33418719 -228.26536189 64.906179 -225.375 61.28125 C-221.27353958 56.20461717 -216.88736289 51.4641145 -212.41625977 46.71704102 C-209.23357247 43.31948876 -206.20879699 39.86819497 -203.3125 36.21875 C-199.23485688 31.14064426 -194.87817746 26.35661696 -190.4375 21.59375 C-189.75969482 20.85922607 -189.08188965 20.12470215 -188.38354492 19.36791992 C-178.38751048 8.74368251 -178.38751048 8.74368251 -170.86639881 8.40820217 C-169.74088958 8.40912396 -168.61538034 8.41004576 -167.45576477 8.41099548 C-166.16427521 8.40962082 -164.87278564 8.40824615 -163.54216003 8.40682983 C-162.10794044 8.410369 -160.67372108 8.41400381 -159.23950195 8.41772461 C-157.73168947 8.41800663 -156.22387685 8.41784845 -154.71606445 8.4172821 C-150.61925333 8.41699472 -146.52247138 8.42288195 -142.42566705 8.42985606 C-138.14552981 8.43609939 -133.86539194 8.43669418 -129.58525085 8.43788147 C-121.47862939 8.44099189 -113.37202137 8.44920139 -105.26540583 8.45923096 C-96.03697681 8.47040106 -86.80854715 8.47590481 -77.58011305 8.48092639 C-58.59506773 8.49138423 -39.61003495 8.5089781 -20.625 8.53125 C-20.34317871 7.91697144 -20.06135742 7.30269287 -19.77099609 6.6697998 C-15.63551533 -1.04744429 -7.66004671 -0.05277901 0 0 Z M-6.625 16.53125 C-6.625 48.21125 -6.625 79.89125 -6.625 112.53125 C7.895 112.53125 22.415 112.53125 37.375 112.53125 C37.375 80.85125 37.375 49.17125 37.375 16.53125 C22.855 16.53125 8.335 16.53125 -6.625 16.53125 Z " fill="#000000" transform="translate(438.625,-0.53125)"/>
<path d="M0 0 C0.76214813 -0.01007584 1.52429626 -0.02015167 2.30953979 -0.03053284 C4.81482903 -0.05888479 7.31951169 -0.06488521 9.82495117 -0.06811523 C11.58786759 -0.07777366 13.35078167 -0.08786739 15.11369324 -0.09837341 C18.8097387 -0.11630912 22.50557427 -0.12189794 26.20166016 -0.12011719 C30.88716886 -0.11981443 35.57129198 -0.1605632 40.25647449 -0.21243382 C43.90219507 -0.24618333 47.54759603 -0.25186284 51.19345665 -0.25028801 C52.91747445 -0.25377813 54.64150518 -0.26675902 56.36536598 -0.29028511 C68.20648181 -0.43661066 77.9024807 1.39453963 88.95653439 5.63837624 C97.02188279 8.76276602 97.02188279 8.76276602 105.54003906 9.82055664 C106.51457535 9.83066772 107.48911163 9.84077881 108.49317932 9.85119629 C109.51532028 9.84817505 110.53746124 9.84515381 111.59057617 9.84204102 C113.20771767 9.85829529 113.20771767 9.85829529 114.85752869 9.87487793 C119.4329723 9.92043172 124.00835486 9.93219589 128.58398438 9.94702148 C131.94054982 9.96276993 135.29665129 9.99577483 138.65307617 10.02954102 C139.67724136 10.02651978 140.70140656 10.02349854 141.75660706 10.02038574 C148.68293771 10.09248154 154.80631561 10.67914676 160.29760742 15.33813477 C160.83643555 16.00973633 161.37526367 16.68133789 161.93041992 17.37329102 C162.4847168 18.04231445 163.03901367 18.71133789 163.61010742 19.40063477 C165.84072692 22.54158817 167.05541992 24.53320204 167.05541992 28.43579102 C174.64541992 28.43579102 182.23541992 28.43579102 190.05541992 28.43579102 C190.71541992 27.11579102 191.37541992 25.79579102 192.05541992 24.43579102 C206.05868099 3.41410894 206.05868099 3.41410894 216.05541992 0.43579102 C219.42459416 0.00150336 222.75892937 -0.03220566 226.15307617 -0.03295898 C227.10556747 -0.04057251 228.05805878 -0.04818604 229.03941345 -0.05603027 C231.0438272 -0.0667903 233.04829683 -0.06970114 235.05273438 -0.06518555 C238.11252185 -0.0642107 241.16982036 -0.10593155 244.22924805 -0.15014648 C246.18301889 -0.1553523 248.1367984 -0.1580417 250.09057617 -0.15795898 C251.45485497 -0.18255188 251.45485497 -0.18255188 252.84669495 -0.2076416 C257.21452442 -0.16026301 260.14648592 0.0436184 263.61572266 2.84790039 C267.18542595 6.63443646 267.61383916 9.09295739 267.55541992 14.1809082 C266.41905677 21.57836601 262.69128496 28.32978159 259.55541992 35.06079102 C258.85064834 36.61343007 258.14751195 38.16681245 257.44604492 39.72094727 C255.70361783 43.56235404 253.91940702 47.38224261 252.11254883 51.19372559 C251.06667585 53.41191831 250.0434757 55.63969201 249.02026367 57.8684082 C248.35624406 59.27431766 247.6909359 60.67961946 247.02416992 62.08422852 C246.74255005 62.70939362 246.46093018 63.33455872 246.17077637 63.97866821 C241.75053841 73.09949587 233.70744307 78.72675853 225.38745117 84.06860352 C224.47194992 84.66776581 223.55644867 85.2669281 222.61320496 85.88424683 C219.70394295 87.78555962 216.78631956 89.67354147 213.86791992 91.56079102 C211.01040981 93.42154051 208.15469472 95.28502264 205.29904175 97.14862061 C203.40183888 98.38551421 201.50334125 99.62042414 199.60354614 100.85333252 C194.77369311 103.99079776 189.96660543 107.15671048 185.19360352 110.38012695 C184.24821213 111.01747772 183.30282074 111.65482849 182.32878113 112.31149292 C180.54138274 113.51952524 178.75722619 114.732374 176.977005 115.95095825 C169.27429194 121.15375014 162.38119655 124.58979687 152.8898468 124.53344727 C151.87089828 124.53022964 150.85194977 124.52701202 149.80212402 124.5236969 C148.69502075 124.51531296 147.58791748 124.50692902 146.44726562 124.49829102 C144.01304721 124.48884712 141.57882778 124.47966334 139.14460754 124.47070312 C137.21109405 124.46126175 137.21109405 124.46126175 135.23851967 124.45162964 C131.19855903 124.43361735 127.15869267 124.43171318 123.11869812 124.43408203 C122.43542979 124.43445119 121.75216146 124.43482035 121.04818803 124.43520069 C118.9444787 124.43651818 116.84076967 124.43807539 114.73706055 124.43969727 C106.04418121 124.44639881 97.35190068 124.44162432 88.65917969 124.38452148 C82.31086026 124.34293105 75.96338307 124.33337801 69.61497372 124.36063194 C66.26020216 124.37382619 62.90861381 124.36633494 59.55379677 124.32958984 C55.80469503 124.29079397 52.05964381 124.30815909 48.31054688 124.33813477 C47.21356476 124.31355698 46.11658264 124.28897919 44.98635864 124.26365662 C37.31225741 124.40733303 33.34713252 126.78524075 27.71441936 131.91969299 C25.73480755 134.36588589 25.73480755 134.36588589 26.27980518 137.52574158 C26.53575805 138.48605789 26.79171091 139.44637421 27.05541992 140.43579102 C27.62187377 148.44043399 28.14330273 155.83650773 23.05541992 162.43579102 C21.41363733 164.26044543 19.71495486 165.96195575 17.92260742 167.63891602 C15.3247269 170.1389684 13.04510728 172.87769155 10.73120117 175.63891602 C8.42495883 178.11180991 6.42774027 180.13827625 3.05541992 180.86938477 C-0.39919601 180.87613206 -2.42892934 180.74518146 -5.44458008 178.93579102 C-7.13327003 176.12130777 -7.69567168 173.86991058 -7.51879883 170.57641602 C-6.35804447 166.2492501 -3.07909719 163.47639001 0.05541992 160.43579102 C0.7850293 159.70618164 1.51463867 158.97657227 2.26635742 158.22485352 C3.65181325 156.83939769 5.04684205 155.46340895 6.45385742 154.09985352 C8.71075322 151.75488373 9.03929332 150.54662724 9.51635742 147.26782227 C8.87505558 141.93632134 6.40831463 139.78619486 2.68041992 136.12329102 C2.04354248 135.47030029 1.40666504 134.81730957 0.75048828 134.14453125 C-1.13071143 132.22358288 -3.0334402 130.32690013 -4.94458008 128.43579102 C-5.91512872 127.46493299 -6.88523573 126.49363312 -7.85473633 125.52172852 C-9.49598862 123.88301294 -11.14158568 122.24863314 -12.79223633 120.61938477 C-14.72467028 118.6588937 -16.53419501 116.65444401 -18.31958008 114.56079102 C-21.35888775 111.00292848 -24.61822354 107.72137714 -27.94458008 104.43579102 C-31.20841258 101.21181603 -34.41288194 98.00061201 -37.38208008 94.49829102 C-41.07001259 90.15794784 -45.13552551 86.21889022 -49.18212891 82.21777344 C-52.08852445 79.33150586 -54.91138204 76.43128437 -57.56958008 73.31079102 C-60.46809103 69.94244662 -63.44396596 66.6548828 -66.50708008 63.43579102 C-67.39524414 62.48704102 -68.2834082 61.53829102 -69.19848633 60.56079102 C-71.77931988 58.22889655 -71.77931988 58.22889655 -74.95629883 57.87719727 C-78.6595149 58.56943243 -80.37007972 59.90835128 -83.19458008 62.37329102 C-88.96011013 67.32640547 -88.96011013 67.32640547 -92.75708008 67.74829102 C-96.85906255 67.34613587 -98.30728761 66.61605547 -100.94458008 63.43579102 C-102.14283781 60.13048458 -102.10100778 57.75535804 -100.94458008 54.43579102 C-95.30134969 47.55306538 -87.91320401 41.0747495 -78.84301758 40.10375977 C-72.16804272 39.89660537 -66.98331878 40.59403162 -60.94458008 43.43579102 C-60.24333008 42.79512695 -59.54208008 42.15446289 -58.81958008 41.49438477 C-53.90757474 37.01618425 -48.98045763 32.56233007 -43.96020508 28.20532227 C-41.65850243 26.18464146 -39.39693629 24.12266483 -37.13208008 22.06079102 C-32.67612608 18.03738725 -28.0867733 14.21123892 -23.41333008 10.44360352 C-21.46156902 8.85625354 -19.57436943 7.2306039 -17.69458008 5.56079102 C-12.06475593 1.21047236 -7.01431759 -0.01354667 0 0 Z M-12.50708008 23.42407227 C-13.07201172 23.96193359 -13.63694336 24.49979492 -14.21899414 25.05395508 C-15.07315918 25.89265137 -15.07315918 25.89265137 -15.94458008 26.74829102 C-17.16778697 27.91704672 -18.39173926 29.08502282 -19.61645508 30.25219727 C-20.19331055 30.80665527 -20.77016602 31.36111328 -21.36450195 31.93237305 C-23.8459522 34.29343154 -26.43064492 36.52632562 -29.02270508 38.76391602 C-31.35563082 40.79337174 -33.64969253 42.86343802 -35.94458008 44.93579102 C-40.24052753 48.81278384 -44.57609254 52.64082 -48.94458008 56.43579102 C-45.47898634 60.63098344 -41.87952633 64.54814182 -38.00708008 68.37329102 C-35.09652554 71.24929891 -32.27845436 74.12793926 -29.63208008 77.24829102 C-26.42219108 81.00713965 -22.95668173 84.4632178 -19.44458008 87.93579102 C-15.39125246 91.94360119 -11.50670619 95.9912322 -7.81958008 100.34204102 C-4.79164913 103.72323058 -1.53110764 106.86965644 1.69726562 110.05810547 C5.36118266 113.69403141 8.78439413 117.4378706 12.05541992 121.43579102 C16.62233781 120.19026796 19.01780863 117.67452723 22.11401367 114.28735352 C28.63381497 108.06927341 33.32912919 107.86212244 42.19189453 107.9375 C43.41047653 107.9319812 44.62905853 107.9264624 45.88456726 107.92077637 C48.52697609 107.91145924 51.16823558 107.90928939 53.81052971 107.91937065 C57.9926918 107.93497981 62.17444848 107.92122002 66.35658264 107.90333557 C74.48103621 107.87255792 82.60536493 107.87101255 90.72986603 107.87298584 C101.06752299 107.87437989 111.40508371 107.86395863 121.74267012 107.82440811 C125.89552928 107.80951469 130.04802695 107.80971431 134.20089138 107.82188594 C137.39713688 107.82772199 140.59332102 107.81455245 143.78955078 107.8046875 C144.93315063 107.81240677 146.07675049 107.82012604 147.25500488 107.82807922 C155.50959699 107.77551243 160.6664331 106.22204566 167.58764648 101.6394043 C168.40670471 101.10098907 169.22576294 100.56257385 170.06964111 100.00784302 C170.93635437 99.42976898 171.80306763 98.85169495 172.69604492 98.25610352 C173.61770447 97.64749481 174.53936401 97.03888611 175.48895264 96.41183472 C178.43128522 94.46673108 181.36828174 92.51372687 184.30541992 90.56079102 C186.23218405 89.28687059 188.1592648 88.01342892 190.08666992 86.74047852 C194.83009184 83.6037515 199.56172325 80.44983379 204.28710938 77.28601074 C206.13024707 76.05413676 207.97578824 74.82585118 209.82373047 73.60119629 C212.44334167 71.86464644 215.05487248 70.11654499 217.66479492 68.36547852 C218.82957367 67.59846115 218.82957367 67.59846115 220.0178833 66.81594849 C227.41038368 61.81906104 231.51069532 56.22105755 235.00854492 48.11547852 C235.52708038 46.94385666 235.52708038 46.94385666 236.05609131 45.74856567 C236.77985565 44.1084008 237.49896964 42.46617663 238.21362305 40.82202148 C239.30698963 38.30718055 240.4142655 35.79883976 241.52416992 33.29125977 C242.22810867 31.69135714 242.93126131 30.09110836 243.63354492 28.49047852 C243.96267883 27.74248993 244.29181274 26.99450134 244.63092041 26.22384644 C246.03483301 22.98742762 247.26734528 19.87291231 248.05541992 16.43579102 C243.9930559 16.34850055 239.93093403 16.2953011 235.86791992 16.24829102 C234.71743164 16.2231543 233.56694336 16.19801758 232.3815918 16.17211914 C231.26977539 16.16245117 230.15795898 16.1527832 229.01245117 16.14282227 C227.99127197 16.12711182 226.97009277 16.11140137 225.91796875 16.09521484 C218.59438015 16.96655012 214.38519125 23.03666338 210.05541992 28.43579102 C207.34979278 32.07094015 204.74726974 35.77662749 202.15698242 39.49438477 C200.05541992 42.43579102 200.05541992 42.43579102 198.05541992 44.43579102 C194.98266602 44.75463867 194.98266602 44.75463867 191.07885742 44.84985352 C190.39360992 44.86921967 189.70836243 44.88858582 189.00234985 44.90853882 C186.81183349 44.96835932 184.62126462 45.01472858 182.43041992 45.06079102 C180.9460219 45.09896865 179.46164608 45.13802025 177.97729492 45.17797852 C174.33687307 45.27406186 170.69628556 45.35808384 167.05541992 45.43579102 C167.00208496 46.25055908 166.94875 47.06532715 166.89379883 47.90478516 C166.81564941 48.97849365 166.7375 50.05220215 166.65698242 51.15844727 C166.58302246 52.22071533 166.5090625 53.2829834 166.43286133 54.37744141 C165.79994366 59.50587587 164.19054469 63.49034703 160.34057617 66.99829102 C154.82145608 71.10554318 150.20494175 71.58783021 143.40893555 71.59692383 C142.52574142 71.60188873 141.6425473 71.60685364 140.73258972 71.61196899 C137.8089419 71.62658319 134.88534828 71.63339026 131.96166992 71.63891602 C129.932902 71.64466667 127.90413409 71.65042442 125.87536621 71.65618896 C121.62174221 71.66669586 117.3681371 71.67254104 113.11450195 71.67602539 C107.65661169 71.68151919 102.19896975 71.70556744 96.74115753 71.73399734 C92.55136374 71.7525908 88.36163028 71.75782749 84.17179871 71.75936127 C82.15909971 71.76239417 80.14640192 71.77044404 78.13374329 71.78354645 C75.32293577 71.80054333 72.51274191 71.79874271 69.7019043 71.79223633 C68.44877693 71.8060585 68.44877693 71.8060585 67.17033386 71.82015991 C61.47428508 71.77871884 61.47428508 71.77871884 59.34311676 70.03391647 C57.74048413 68.04493279 57.65167472 66.9653689 57.68041992 64.43579102 C57.66881836 63.41485352 57.66881836 63.41485352 57.65698242 62.37329102 C58.20531516 59.70688868 58.8189699 59.02578963 61.05541992 57.43579102 C63.78787187 57.14161635 66.29449781 57.029112 69.02758789 57.05102539 C69.83929443 57.04565262 70.65100098 57.04027985 71.48730469 57.03474426 C73.25025933 57.02495897 75.01326218 57.02202439 76.7762413 57.02510071 C79.5672992 57.02957257 82.35772095 57.01559605 85.14871216 56.9967041 C91.07593761 56.95988485 97.00309693 56.94620873 102.93041992 56.93579102 C109.79194936 56.92371575 116.65316998 56.90217091 123.5145607 56.85578918 C126.26274975 56.84221321 129.01054908 56.84639135 131.75875854 56.85119629 C133.44733171 56.84185449 135.13590056 56.83168537 136.82446289 56.82055664 C137.58723541 56.82670486 138.35000793 56.83285309 139.13589478 56.83918762 C143.60856927 56.78746554 146.50337265 56.21239098 150.05541992 53.43579102 C151.80896406 49.92870274 151.24006276 45.92367353 151.24291992 42.06079102 C151.25516602 41.19711914 151.26741211 40.33344727 151.2800293 39.44360352 C151.28196289 38.60829102 151.28389648 37.77297852 151.28588867 36.91235352 C151.28999756 36.15003418 151.29410645 35.38771484 151.29833984 34.60229492 C151.02129611 32.1314546 150.3662879 30.53998051 149.05541992 28.43579102 C146.70125609 27.2587091 145.28465185 27.30531702 142.66015625 27.29394531 C141.74772659 27.28691086 140.83529694 27.2798764 139.8952179 27.27262878 C138.90265488 27.26846451 137.91009186 27.26430023 136.88745117 27.26000977 C134.77481139 27.23677619 132.66218119 27.21265752 130.54956055 27.18774414 C127.22796553 27.1529082 123.90671472 27.12344969 120.58496094 27.10986328 C107.79583415 27.04734593 96.19941962 26.7079899 84.05541992 22.43579102 C82.88885864 22.04967651 82.88885864 22.04967651 81.69873047 21.65576172 C79.94979626 21.05854873 78.21964032 20.40697978 76.49291992 19.74829102 C70.08693553 17.31114972 64.3867335 16.31916469 57.53442383 16.25878906 C56.25934967 16.24595383 54.98427551 16.23311859 53.67056274 16.21989441 C52.29103997 16.21172662 50.91151275 16.20428296 49.53198242 16.19750977 C48.83035351 16.19343424 48.12872459 16.18935871 47.4058342 16.18515968 C43.69430596 16.1643763 39.98281388 16.15003952 36.27124023 16.140625 C32.45604434 16.12955586 28.64143086 16.09512868 24.82644081 16.0554533 C21.8751625 16.02921324 18.92402185 16.02092686 15.97263718 16.01734352 C14.56691921 16.01249933 13.16120649 16.00094766 11.75560379 15.98230553 C2.05022147 15.86154725 -5.23785521 16.36955525 -12.50708008 23.42407227 Z " fill="#000000" transform="translate(120.944580078125,331.564208984375)"/>
<path d="M0 0 C1.82720492 0.62523826 3.63958835 1.29493661 5.4375 2 C10.39932011 3.92159009 14.7004225 5.05383568 20 4 C21.71958293 2.99951539 23.44085716 1.99778553 25.1015625 0.90234375 C28.76172217 -0.83736177 33.07123879 -0.79724405 37 0 C37.99 1.485 37.99 1.485 39 3 C38.51789063 3.80824219 38.03578125 4.61648437 37.5390625 5.44921875 C36.59160156 7.05216797 36.59160156 7.05216797 35.625 8.6875 C34.99851562 9.74324219 34.37203125 10.79898438 33.7265625 11.88671875 C31.96496793 14.88179951 31.96496793 14.88179951 30.94921875 17.8125 C30 20 30 20 27.1875 21.3125 C21.52949985 22.2414254 15.73374817 22 10 22 C12.97 30.25 15.94 38.5 19 47 C21.97 47.33 24.94 47.66 28 48 C29.61328125 49.8203125 29.61328125 49.8203125 30.3125 52.125 C31.73829625 56.48537161 33.66408196 60.06024544 36 64 C35.1793103 63.91190063 35.1793103 63.91190063 34.34204102 63.82202148 C25.65233059 63.07527076 17.24032815 62.65697702 10.171875 68.39453125 C5.71806541 72.59441058 1.82470522 77.23055536 -2 82 C-2.9601256 83.13070472 -3.92213066 84.25981851 -4.88671875 85.38671875 C-24.29551058 109.18305536 -36.91520996 136.88573982 -34 168 C-33.15082952 173.15769973 -31.7439048 178.07191187 -30 183 C-32.77217867 182.71828671 -35.54230241 182.42508608 -38.3125 182.125 C-39.09818359 182.04636719 -39.88386719 181.96773437 -40.69335938 181.88671875 C-41.45068359 181.80292969 -42.20800781 181.71914063 -42.98828125 181.6328125 C-43.68477783 181.55949707 -44.38127441 181.48618164 -45.09887695 181.41064453 C-47 181 -47 181 -50 179 C-57.62644819 153.99651045 -50.5368639 126.35320524 -38.8984375 103.87109375 C-28.60285352 84.64944792 -14.69119324 68.05362783 1 53 C-1.35346608 43.60311069 -4.54168598 34.54536678 -7.89233398 25.46484375 C-10.59200507 18.12249223 -12.8248373 11.86453778 -12 4 C-9.19401535 -0.79355711 -5.09581432 -0.88622858 0 0 Z " fill="#000000" transform="translate(232,136)"/>
<path d="M0 0 C2.5 1.5 2.5 1.5 4 4 C4.31584913 6.75841574 4.1862657 9.20601454 4 12 C4.9075 12.226875 5.815 12.45375 6.75 12.6875 C10.61443044 14.24813537 12.01076135 15.33980088 14 19 C14.30985129 22.8693624 13.84592224 25.91721954 11.4375 29 C7.96720901 30.42370912 4.70101506 30.55659797 1 30 C0.3503125 29.66871094 -0.299375 29.33742187 -0.96875 28.99609375 C-3.3140731 27.84598338 -4.9020134 27.73220557 -7.5 27.75 C-8.2528125 27.74484375 -9.005625 27.7396875 -9.78125 27.734375 C-12.2296721 28.02749596 -13.87304054 28.78183231 -16 30 C-15.84645664 31.96402072 -15.84645664 31.96402072 -15 34 C-13.01716023 35.13577625 -13.01716023 35.13577625 -10.51953125 35.78125 C-9.1437793 36.20857422 -9.1437793 36.20857422 -7.74023438 36.64453125 C-6.29100586 37.06798828 -6.29100586 37.06798828 -4.8125 37.5 C4.99059681 40.4229111 11.93888357 43.41655561 18 52 C20.7147775 57.67635296 21.05619081 63.60070626 19.1953125 69.58984375 C16.30862154 76.20932475 12.39702707 79.75356866 6 83 C5.01 83.33 4.02 83.66 3 84 C2.34171437 86.01240016 2.34171437 86.01240016 2.0625 88.375 C1.19174708 92.75662871 1.19174708 92.75662871 -0.625 95.0625 C-4.14219153 96.45086508 -7.27720211 96.66505835 -11 96 C-13.4375 94.5 -13.4375 94.5 -15 92 C-15.04125 90.700625 -15.0825 89.40125 -15.125 88.0625 C-15.16528194 85.93869908 -15.16528194 85.93869908 -16 84 C-18.42788131 82.33628997 -20.8163704 81.27290486 -23.5546875 80.203125 C-26.33008503 78.83759395 -27.43815895 77.64350443 -29 75 C-29.56813502 71.18537914 -29.30782225 69.51303708 -27.3125 66.1875 C-24.67755331 63.69498286 -23.55360486 63.31924874 -20 63 C-17.640625 63.8125 -17.640625 63.8125 -15.25 65 C-10.2474048 67.16853903 -6.25764541 67.52676002 -1 66 C-0.01 65.34 0.98 64.68 2 64 C1.83690641 61.55556594 1.83690641 61.55556594 1 59 C-0.87272345 57.66107555 -0.87272345 57.66107555 -3.3125 56.9375 C-4.21097656 56.61652344 -5.10945313 56.29554688 -6.03515625 55.96484375 C-8.06188834 55.30528798 -10.09064265 54.65192256 -12.12109375 54.00390625 C-21.60225409 50.96188602 -28.26634878 47.57833787 -33.3125 38.6875 C-34.95473723 32.26784536 -34.62200469 26.66029423 -31.32421875 20.8515625 C-27.07115814 14.90480518 -21.87870135 12.09858685 -15 10 C-14.34 10 -13.68 10 -13 10 C-12.9175 8.906875 -12.835 7.81375 -12.75 6.6875 C-12 3 -12 3 -10.4375 1.0625 C-6.90243524 -0.47842566 -3.79154935 -0.67595245 0 0 Z " fill="#000000" transform="translate(425,208)"/>
<path d="M0 0 C2.5 1.5 2.5 1.5 4 4 C4.31584913 6.75841574 4.1862657 9.20601454 4 12 C4.9075 12.226875 5.815 12.45375 6.75 12.6875 C10.61443044 14.24813537 12.01076135 15.33980088 14 19 C14.30985129 22.8693624 13.84592224 25.91721954 11.4375 29 C7.96720901 30.42370912 4.70101506 30.55659797 1 30 C0.3503125 29.66871094 -0.299375 29.33742187 -0.96875 28.99609375 C-3.3140731 27.84598338 -4.9020134 27.73220557 -7.5 27.75 C-8.2528125 27.74484375 -9.005625 27.7396875 -9.78125 27.734375 C-12.2296721 28.02749596 -13.87304054 28.78183231 -16 30 C-15.84645664 31.96402072 -15.84645664 31.96402072 -15 34 C-13.01716023 35.13577625 -13.01716023 35.13577625 -10.51953125 35.78125 C-9.1437793 36.20857422 -9.1437793 36.20857422 -7.74023438 36.64453125 C-6.29100586 37.06798828 -6.29100586 37.06798828 -4.8125 37.5 C4.99059681 40.4229111 11.93888357 43.41655561 18 52 C20.7147775 57.67635296 21.05619081 63.60070626 19.1953125 69.58984375 C16.30862154 76.20932475 12.39702707 79.75356866 6 83 C5.01 83.33 4.02 83.66 3 84 C2.34171437 86.01240016 2.34171437 86.01240016 2.0625 88.375 C1.19174708 92.75662871 1.19174708 92.75662871 -0.625 95.0625 C-4.14219153 96.45086508 -7.27720211 96.66505835 -11 96 C-13.4375 94.5 -13.4375 94.5 -15 92 C-15.04125 90.700625 -15.0825 89.40125 -15.125 88.0625 C-15.16528194 85.93869908 -15.16528194 85.93869908 -16 84 C-18.42788131 82.33628997 -20.8163704 81.27290486 -23.5546875 80.203125 C-26.33008503 78.83759395 -27.43815895 77.64350443 -29 75 C-29.56813502 71.18537914 -29.30782225 69.51303708 -27.3125 66.1875 C-24.67755331 63.69498286 -23.55360486 63.31924874 -20 63 C-17.640625 63.8125 -17.640625 63.8125 -15.25 65 C-10.2474048 67.16853903 -6.25764541 67.52676002 -1 66 C-0.01 65.34 0.98 64.68 2 64 C1.83690641 61.55556594 1.83690641 61.55556594 1 59 C-0.87272345 57.66107555 -0.87272345 57.66107555 -3.3125 56.9375 C-4.21097656 56.61652344 -5.10945313 56.29554688 -6.03515625 55.96484375 C-8.06188834 55.30528798 -10.09064265 54.65192256 -12.12109375 54.00390625 C-21.60225409 50.96188602 -28.26634878 47.57833787 -33.3125 38.6875 C-34.95473723 32.26784536 -34.62200469 26.66029423 -31.32421875 20.8515625 C-27.07115814 14.90480518 -21.87870135 12.09858685 -15 10 C-14.34 10 -13.68 10 -13 10 C-12.9175 8.906875 -12.835 7.81375 -12.75 6.6875 C-12 3 -12 3 -10.4375 1.0625 C-6.90243524 -0.47842566 -3.79154935 -0.67595245 0 0 Z " fill="#000000" transform="translate(105,208)"/>
<path d="M0 0 C2.5 1.5 2.5 1.5 4 4 C4.31584913 6.75841574 4.1862657 9.20601454 4 12 C4.9075 12.226875 5.815 12.45375 6.75 12.6875 C10.61443044 14.24813537 12.01076135 15.33980088 14 19 C14.30985129 22.8693624 13.84592224 25.91721954 11.4375 29 C7.96720901 30.42370912 4.70101506 30.55659797 1 30 C0.3503125 29.66871094 -0.299375 29.33742188 -0.96875 28.99609375 C-3.3140731 27.84598338 -4.9020134 27.73220557 -7.5 27.75 C-8.2528125 27.74484375 -9.005625 27.7396875 -9.78125 27.734375 C-12.2296721 28.02749596 -13.87304054 28.78183231 -16 30 C-15.84645664 31.96402072 -15.84645664 31.96402072 -15 34 C-13.01716023 35.13577625 -13.01716023 35.13577625 -10.51953125 35.78125 C-9.1437793 36.20857422 -9.1437793 36.20857422 -7.74023438 36.64453125 C-6.29100586 37.06798828 -6.29100586 37.06798828 -4.8125 37.5 C4.99059681 40.4229111 11.93888357 43.41655561 18 52 C20.7147775 57.67635296 21.05619081 63.60070626 19.1953125 69.58984375 C16.30862154 76.20932475 12.39702707 79.75356866 6 83 C5.01 83.33 4.02 83.66 3 84 C2.34 86.31 1.68 88.62 1 91 C-4.28 91 -9.56 91 -15 91 C-15.33 88.69 -15.66 86.38 -16 84 C-18.14197257 82.23878394 -18.14197257 82.23878394 -20.875 81.3125 C-24.72284907 79.7699949 -26.85661859 78.62085791 -29 75 C-29.56813502 71.18537914 -29.30782225 69.51303708 -27.3125 66.1875 C-24.67755331 63.69498286 -23.55360486 63.31924874 -20 63 C-17.640625 63.8125 -17.640625 63.8125 -15.25 65 C-10.2474048 67.16853903 -6.25764541 67.52676002 -1 66 C-0.01 65.34 0.98 64.68 2 64 C1.83690641 61.55556594 1.83690641 61.55556594 1 59 C-0.87272345 57.66107555 -0.87272345 57.66107555 -3.3125 56.9375 C-4.21097656 56.61652344 -5.10945313 56.29554688 -6.03515625 55.96484375 C-8.06188834 55.30528798 -10.09064265 54.65192256 -12.12109375 54.00390625 C-21.60225409 50.96188602 -28.26634878 47.57833787 -33.3125 38.6875 C-34.95473723 32.26784536 -34.62200469 26.66029423 -31.32421875 20.8515625 C-27.07115814 14.90480518 -21.87870135 12.09858685 -15 10 C-14.34 10 -13.68 10 -13 10 C-12.9175 8.906875 -12.835 7.81375 -12.75 6.6875 C-12 3 -12 3 -10.4375 1.0625 C-6.90243524 -0.47842566 -3.79154935 -0.67595245 0 0 Z " fill="#000000" transform="translate(271,236)"/>
<path d="M0 0 C1.82008665 2.00390335 3.25907309 3.83512007 4.75 6.0625 C5.17829102 6.68447266 5.60658203 7.30644531 6.04785156 7.94726562 C20.60386702 29.47603021 30.17335504 52.04530113 30.1875 78.3125 C30.19974609 79.49779297 30.21199219 80.68308594 30.22460938 81.90429688 C30.23570121 88.57048963 29.99275265 94.61127472 28 101 C24.9079531 103.0613646 23.28166209 103.443228 19.6875 104 C15.62754847 104.67845344 11.8642325 105.53785797 8 107 C8.2901934 105.66634524 8.58225892 104.33309785 8.875 103 C9.03742188 102.2575 9.19984375 101.515 9.3671875 100.75 C9.86076133 98.60508656 10.43621512 96.47896526 11.04296875 94.36328125 C16.63401402 71.94140646 9.01749734 48.42987216 -2 29 C-7.20281616 20.45425727 -13.17964735 12.45492598 -19.63671875 4.8203125 C-21 3 -21 3 -21 1 C-18.4385681 0.6358011 -15.87641581 0.28337202 -13.3125 -0.0625 C-12.59126953 -0.16626953 -11.87003906 -0.27003906 -11.12695312 -0.37695312 C-3.40091901 -1.40003527 -3.40091901 -1.40003527 0 0 Z " fill="#000000" transform="translate(318,214)"/>
</svg>
