<?xml version="1.0" encoding="UTF-8"?>
<svg version="1.1" xmlns="http://www.w3.org/2000/svg" width="512" height="512">
<path d="M0 0 C2.04146591 -0.00436055 4.08074385 -0.04068319 6.12182617 -0.07861328 C14.90752544 -0.10464498 20.70890427 0.395706 27.48706055 6.33544922 C28.02588867 6.98642578 28.5647168 7.63740234 29.11987305 8.30810547 C29.67416992 8.95650391 30.2284668 9.60490234 30.79956055 10.27294922 C38.62711838 21.63348585 34.24487305 34.02145355 34.24487305 48.37060547 C108.16487305 48.37060547 182.08487305 48.37060547 258.24487305 48.37060547 C258.24487305 38.14060547 258.24487305 27.91060547 258.24487305 17.37060547 C262.77021088 8.31992979 262.77021088 8.31992979 266.18237305 5.49560547 C266.83077148 4.94130859 267.47916992 4.38701172 268.1472168 3.81591797 C274.35368881 -0.46042215 280.70924611 -0.00174316 288 0 C290.04146591 -0.00436055 292.08074385 -0.04068319 294.12182617 -0.07861328 C302.90752544 -0.10464498 308.70890427 0.395706 315.48706055 6.33544922 C316.02588867 6.98642578 316.5647168 7.63740234 317.11987305 8.30810547 C317.67416992 8.95650391 318.2284668 9.60490234 318.79956055 10.27294922 C322.04760762 14.98700673 322.48687582 18.96726797 322.44018555 24.64013672 C322.4359407 25.6616407 322.4359407 25.6616407 322.43161011 26.70378113 C322.4204783 28.86374002 322.39538761 31.02327341 322.36987305 33.18310547 C322.35983416 34.65380257 322.3507099 36.12450623 322.3425293 37.59521484 C322.32056218 41.18714832 322.28608125 44.77883532 322.24487305 48.37060547 C323.79078125 48.34450195 323.79078125 48.34450195 325.36791992 48.31787109 C326.73315021 48.30379655 328.09838492 48.29014708 329.46362305 48.27685547 C330.14134766 48.26428711 330.81907227 48.25171875 331.51733398 48.23876953 C338.35836448 48.188835 342.31356945 49.57360462 347.20581055 54.24169922 C352.10649621 59.53243946 354.49188607 63.83909806 354.50214195 71.1796999 C354.50859084 72.34817567 354.51503974 73.51665145 354.52168405 74.72053558 C354.51703824 76.63986892 354.51703824 76.63986892 354.51229858 78.59797668 C354.51603558 79.97427628 354.52063729 81.35057375 354.52602923 82.72686785 C354.53826866 86.5082762 354.53799766 90.28959613 354.53564048 94.07101977 C354.53523255 98.14952817 354.54626918 102.22800813 354.55575562 106.3065033 C354.57237179 114.29691001 354.57786544 122.28728722 354.57898037 130.27770976 C354.57993056 136.77256871 354.58403939 143.26741792 354.59038162 149.76227379 C354.60799577 168.17494717 354.61722023 186.58759724 354.61572067 205.00027911 C354.61564076 205.99300683 354.61556085 206.98573454 354.61547852 208.00854492 C354.61539675 209.00248426 354.61531499 209.99642361 354.61523075 211.02048232 C354.61441782 227.12938404 354.6335569 243.23819225 354.66175525 259.34706692 C354.69047827 275.88613201 354.70429586 292.42515149 354.7025677 308.96424216 C354.70190359 318.25025263 354.7074049 327.53616508 354.7289238 336.82215309 C354.74712794 344.72843582 354.75148926 352.6345761 354.73790495 360.5408707 C354.73137138 364.574302 354.73127194 368.60745997 354.74861145 372.64086533 C354.76433035 376.33531283 354.76149107 380.02927003 354.74404319 383.72370549 C354.73951818 385.68896666 354.75463995 387.65424295 354.77052248 389.61944515 C354.70689305 397.7571436 353.7949079 403.31947225 348.2800293 409.61279297 C347.62905273 410.15162109 346.97807617 410.69044922 346.30737305 411.24560547 C345.65897461 411.79990234 345.01057617 412.35419922 344.3425293 412.92529297 C338.96885693 416.62782328 334.14956005 416.6525281 327.83598328 416.6111145 C326.884327 416.61282335 325.93267073 416.6145322 324.95217639 416.61629283 C321.76149817 416.61958861 318.57102997 416.60858247 315.38037109 416.59765625 C313.09394841 416.59709216 310.80752537 416.59740866 308.52110291 416.59854126 C302.31082159 416.59911584 296.10061731 416.58734441 289.89035392 416.57339334 C283.4014193 416.56090359 276.91248299 416.55971687 270.42353821 416.55734253 C259.53120549 416.55182959 248.63890126 416.53933122 237.74658203 416.52148438 C226.52815899 416.50312235 215.30974363 416.48896742 204.09130859 416.48046875 C203.39963924 416.4799433 202.70796988 416.47941786 201.99534085 416.47887649 C198.52538954 416.47626638 195.05543817 416.47373897 191.58548677 416.47125268 C162.80526348 416.45052406 134.02506894 416.4151531 105.24487305 416.37060547 C104.94846924 417.2895459 104.65206543 418.20848633 104.34667969 419.15527344 C99.03658548 434.65138262 88.30506862 447.60883033 77.24487305 459.37060547 C76.71893555 459.96099609 76.19299805 460.55138672 75.65112305 461.15966797 C60.66828629 477.28915039 39.1803635 487.62872125 18.24487305 493.37060547 C17.07053711 493.70962891 15.89620117 494.04865234 14.6862793 494.39794922 C-17.01302025 501.93217485 -51.80860731 495.40341606 -79.75512695 479.37060547 C-88.45462433 473.87049058 -96.32361585 467.48561269 -103.75512695 460.37060547 C-104.50149414 459.68740234 -105.24786133 459.00419922 -106.0168457 458.30029297 C-112.63749654 452.03782743 -117.73476031 444.92712285 -122.75512695 437.37060547 C-123.38418945 436.43732422 -124.01325195 435.50404297 -124.66137695 434.54248047 C-141.99114288 406.97239831 -146.71317774 370.57595788 -139.59423828 338.99316406 C-133.73714758 315.79759895 -122.25558161 295.60506612 -105.75512695 278.37060547 C-105.07192383 277.62423828 -104.3887207 276.87787109 -103.68481445 276.10888672 C-92.67209171 264.466285 -78.40627839 255.73089036 -63.75512695 249.37060547 C-63.09512695 249.37060547 -62.43512695 249.37060547 -61.75512695 249.37060547 C-61.75881413 248.42969307 -61.7625013 247.48878067 -61.7663002 246.51935577 C-61.85512655 223.61735505 -61.92084333 200.71537669 -61.96237564 177.81324005 C-61.98299458 166.73789851 -62.01110251 155.66267081 -62.05688477 144.58740234 C-62.09677286 134.93339317 -62.12256463 125.27946646 -62.13148093 115.62537718 C-62.13669231 110.51431285 -62.14892721 105.40348441 -62.17804718 100.29249573 C-62.20524733 95.47935368 -62.21356261 90.66654413 -62.20755768 85.85333252 C-62.20865585 84.08931164 -62.2165823 82.32527936 -62.23194885 80.56132507 C-62.38030685 62.64864376 -62.38030685 62.64864376 -55.7902832 55.12841797 C-55.13930664 54.58958984 -54.48833008 54.05076172 -53.81762695 53.49560547 C-53.16922852 52.94130859 -52.52083008 52.38701172 -51.8527832 51.81591797 C-47.02770407 48.49137555 -42.68385184 48.1027616 -36.94262695 48.24560547 C-35.90332031 48.25914063 -35.90332031 48.25914063 -34.84301758 48.27294922 C-33.146903 48.2963439 -31.45096825 48.33220906 -29.75512695 48.37060547 C-29.78654785 47.02482422 -29.78654785 47.02482422 -29.81860352 45.65185547 C-29.88720311 42.28960688 -29.9371299 38.92811312 -29.97485352 35.56542969 C-29.99483991 34.11641629 -30.02203893 32.66748222 -30.05688477 31.21875 C-30.277332 21.8108402 -30.33366439 14.59541757 -23.7902832 7.12841797 C-23.13930664 6.58958984 -22.48833008 6.05076172 -21.81762695 5.49560547 C-21.16922852 4.94130859 -20.52083008 4.38701172 -19.8527832 3.81591797 C-13.64631119 -0.46042215 -7.29075389 -0.00174316 0 0 Z M-11.75512695 19.37060547 C-13.73818894 23.20190751 -14.0119983 26.4415322 -14.02978516 30.71801758 C-14.03931717 31.9796019 -14.04884918 33.24118622 -14.05867004 34.54100037 C-14.0584086 35.9099836 -14.05747145 37.27896685 -14.0559082 38.64794922 C-14.05979861 40.06132635 -14.06413399 41.47470231 -14.06889343 42.88807678 C-14.07634175 45.84607742 -14.07607445 48.80395868 -14.07080078 51.76196289 C-14.06500715 55.54256115 -14.08194079 59.32266934 -14.10514545 63.10318661 C-14.1199152 66.0209486 -14.12075013 68.93859343 -14.11763573 71.85638618 C-14.11814729 73.24977146 -14.12335393 74.64316357 -14.13344765 76.03651237 C-14.14585662 77.98890279 -14.13705695 79.94139266 -14.12744141 81.89379883 C-14.12807083 83.00234726 -14.12870026 84.11089569 -14.12934875 85.2530365 C-13.69624141 88.86116945 -12.62269818 91.26906509 -10.75512695 94.37060547 C-6.74498874 96.85102964 -2.41090486 96.70442988 2.18237305 96.68310547 C3.2178125 96.70727539 3.2178125 96.70727539 4.27416992 96.73193359 C9.00033758 96.73641337 12.32992448 96.04864033 16.24487305 93.37060547 C18.22793503 89.53930343 18.50174439 86.29967873 18.51953125 82.02319336 C18.52906326 80.76160904 18.53859528 79.50002472 18.54841614 78.20021057 C18.54815469 76.83122734 18.54721755 75.46224409 18.5456543 74.09326172 C18.54954471 72.67988459 18.55388009 71.26650862 18.55863953 69.85313416 C18.56608784 66.89513351 18.56582055 63.93725226 18.56054688 60.97924805 C18.55475324 57.19864978 18.57168689 53.4185416 18.59489155 49.63802433 C18.60966129 46.72026234 18.61049623 43.80261751 18.60738182 40.88482475 C18.60789338 39.49143948 18.61310003 38.09804737 18.62319374 36.70469856 C18.63560271 34.75230815 18.62680304 32.79981828 18.6171875 30.84741211 C18.61781693 29.73886368 18.61844635 28.63031525 18.61909485 27.48817444 C18.18598751 23.88004149 17.11244428 21.47214585 15.24487305 18.37060547 C11.23473483 15.8901813 6.90065095 16.03678106 2.30737305 16.05810547 C1.61708008 16.04199219 0.92678711 16.02587891 0.21557617 16.00927734 C-4.51059148 16.00479756 -7.84017838 16.6925706 -11.75512695 19.37060547 Z M276.24487305 19.37060547 C274.26181106 23.20190751 273.9880017 26.4415322 273.97021484 30.71801758 C273.96068283 31.9796019 273.95115082 33.24118622 273.94132996 34.54100037 C273.9415914 35.9099836 273.94252855 37.27896685 273.9440918 38.64794922 C273.94020139 40.06132635 273.93586601 41.47470231 273.93110657 42.88807678 C273.92365825 45.84607742 273.92392555 48.80395868 273.92919922 51.76196289 C273.93499285 55.54256115 273.91805921 59.32266934 273.89485455 63.10318661 C273.8800848 66.0209486 273.87924987 68.93859343 273.88236427 71.85638618 C273.88185271 73.24977146 273.87664607 74.64316357 273.86655235 76.03651237 C273.85414338 77.98890279 273.86294305 79.94139266 273.87255859 81.89379883 C273.87192917 83.00234726 273.87129974 84.11089569 273.87065125 85.2530365 C274.30375859 88.86116945 275.37730182 91.26906509 277.24487305 94.37060547 C281.25501126 96.85102964 285.58909514 96.70442988 290.18237305 96.68310547 C291.2178125 96.70727539 291.2178125 96.70727539 292.27416992 96.73193359 C297.00033758 96.73641337 300.32992448 96.04864033 304.24487305 93.37060547 C306.22793503 89.53930343 306.50174439 86.29967873 306.51953125 82.02319336 C306.52906326 80.76160904 306.53859528 79.50002472 306.54841614 78.20021057 C306.54815469 76.83122734 306.54721755 75.46224409 306.5456543 74.09326172 C306.54954471 72.67988459 306.55388009 71.26650862 306.55863953 69.85313416 C306.56608784 66.89513351 306.56582055 63.93725226 306.56054688 60.97924805 C306.55475324 57.19864978 306.57168689 53.4185416 306.59489155 49.63802433 C306.60966129 46.72026234 306.61049623 43.80261751 306.60738182 40.88482475 C306.60789338 39.49143948 306.61310003 38.09804737 306.62319374 36.70469856 C306.63560271 34.75230815 306.62680304 32.79981828 306.6171875 30.84741211 C306.61781693 29.73886368 306.61844635 28.63031525 306.61909485 27.48817444 C306.18598751 23.88004149 305.11244428 21.47214585 303.24487305 18.37060547 C299.23473483 15.8901813 294.90065095 16.03678106 290.30737305 16.05810547 C289.61708008 16.04199219 288.92678711 16.02587891 288.21557617 16.00927734 C283.48940852 16.00479756 280.15982162 16.6925706 276.24487305 19.37060547 Z M-43.75512695 67.37060547 C-45.90554298 71.42726003 -46.00226189 74.95960644 -45.99563599 79.50166321 C-45.99819926 80.5616279 -45.99819926 80.5616279 -46.00081432 81.64300603 C-46.0041016 84.00453969 -45.99311824 86.36578755 -45.98217773 88.72729492 C-45.98161346 90.42259209 -45.98193051 92.11788976 -45.98306274 93.81318665 C-45.9836366 98.4119603 -45.97187685 103.01062964 -45.95791483 107.60937905 C-45.94541308 112.41667925 -45.94423741 117.22398183 -45.94186401 122.03129578 C-45.93564762 131.13305592 -45.91923462 140.23476803 -45.89916503 149.33650702 C-45.87681102 159.69917603 -45.86581385 170.06184733 -45.85577416 180.42453444 C-45.83486855 201.73991899 -45.79928661 223.05525751 -45.75512695 244.37060547 C-35.85512695 242.39060547 -35.85512695 242.39060547 -25.75512695 240.37060547 C-27.24012695 238.39060547 -27.24012695 238.39060547 -28.75512695 236.37060547 C-29.13607788 233.78379822 -29.13607788 233.78379822 -29.14331055 230.82348633 C-29.15276703 229.71230942 -29.16222351 228.60113251 -29.17196655 227.45628357 C-29.16589386 226.26140823 -29.15982117 225.0665329 -29.15356445 223.83544922 C-29.15643463 222.60524551 -29.15930481 221.37504181 -29.16226196 220.1075592 C-29.16430312 217.50765523 -29.15876975 214.90773591 -29.14624023 212.30786133 C-29.13548812 209.63889384 -29.13255718 206.97174369 -29.14624023 204.30297852 C-29.16473356 200.45944833 -29.1625388 196.61650343 -29.15356445 192.77294922 C-29.15963715 191.57604965 -29.16570984 190.37915009 -29.17196655 189.14598083 C-29.15778183 187.48394371 -29.15778183 187.48394371 -29.14331055 185.78833008 C-29.14092377 184.81222275 -29.13853699 183.83611542 -29.13607788 182.83042908 C-28.75512695 180.37060547 -28.75512695 180.37060547 -27.57046509 178.55625916 C-25.07048689 176.92344579 -23.29893124 176.98967979 -20.3215332 176.98242188 C-19.21028076 176.97296539 -18.09902832 176.96350891 -16.95410156 176.95376587 C-15.75406494 176.95983856 -14.55402832 176.96591125 -13.31762695 176.97216797 C-12.0860083 176.96929779 -10.85438965 176.96642761 -9.58544922 176.96347046 C-6.31164738 176.96090389 -3.03827159 176.97298937 0.23547363 176.98974609 C2.24297689 176.99559994 4.25008674 176.98976752 6.25756836 176.97949219 C10.10769 176.96099567 13.95722738 176.96319555 17.80737305 176.97216797 C19.00740967 176.96609528 20.20744629 176.96002258 21.44384766 176.95376587 C23.11072632 176.96795059 23.11072632 176.96795059 24.8112793 176.98242188 C26.2799646 176.98600204 26.2799646 176.98600204 27.77832031 176.98965454 C30.24487305 177.37060547 30.24487305 177.37060547 32.06021118 178.55526733 C33.69169276 181.05529777 33.6258003 182.82744595 33.63305664 185.80419922 C33.64251312 186.91545166 33.6519696 188.0267041 33.66171265 189.17163086 C33.65260361 190.97168579 33.65260361 190.97168579 33.64331055 192.80810547 C33.64761581 194.65553345 33.64761581 194.65553345 33.65200806 196.5402832 C33.65457463 199.81408504 33.64248915 203.08746084 33.62573242 206.36120605 C33.61987858 208.36870932 33.625711 210.37581916 33.63598633 212.38330078 C33.65448285 216.23342242 33.65228297 220.08295981 33.64331055 223.93310547 C33.64938324 225.13314209 33.65545593 226.33317871 33.66171265 227.56958008 C33.64752792 229.23645874 33.64752792 229.23645874 33.63305664 230.93701172 C33.63066986 231.91613525 33.62828308 232.89525879 33.62582397 233.90405273 C33.24487305 236.37060547 33.24487305 236.37060547 31.90254211 238.18318176 C29.31488969 240.03677238 26.96948152 239.81122519 23.8269043 239.88232422 C22.57329102 239.91777344 21.31967773 239.95322266 20.02807617 239.98974609 C18.71774414 240.01230469 17.40741211 240.03486328 16.05737305 240.05810547 C14.72205292 240.09128213 13.38676473 240.12577213 12.05151367 240.16162109 C8.78271801 240.24422604 5.51419493 240.31333776 2.24487305 240.37060547 C2.24487305 240.70060547 2.24487305 241.03060547 2.24487305 241.37060547 C3.50299805 241.58974609 4.76112305 241.80888672 6.05737305 242.03466797 C30.30586096 246.44261753 52.73225024 255.74362706 71.24487305 272.37060547 C71.83107422 272.89638184 72.41727539 273.4221582 73.02124023 273.96386719 C90.39888177 289.83632175 102.45825542 309.8573066 109.24487305 332.37060547 C109.24487305 333.03060547 109.24487305 333.69060547 109.24487305 334.37060547 C103.96487305 336.02060547 98.68487305 337.67060547 93.24487305 339.37060547 C92.91487305 337.06060547 92.58487305 334.75060547 92.24487305 332.37060547 C82.07491158 303.54016425 61.5435272 281.06962716 34.34936523 267.36376953 C7.7171033 254.79531923 -22.7431108 253.0627179 -50.60131836 262.56396484 C-65.48738517 268.13906853 -78.82475518 276.97842628 -90.75512695 287.37060547 C-91.3687207 287.89912109 -91.98231445 288.42763672 -92.61450195 288.97216797 C-106.91300835 302.24935248 -116.57708566 320.79634372 -121.75512695 339.37060547 C-122.07481445 340.45728516 -122.39450195 341.54396484 -122.72387695 342.66357422 C-126.98749704 359.81674948 -126.7433848 380.41455156 -121.75512695 397.37060547 C-121.41481445 398.59134766 -121.07450195 399.81208984 -120.72387695 401.06982422 C-112.0362866 429.62734251 -91.66269698 453.14864952 -65.60473633 467.38623047 C-39.88864953 481.07251109 -9.46522616 483.89519936 18.4597168 475.69091797 C35.46073628 469.98320672 49.72464001 461.12264216 63.24487305 449.37060547 C63.85717773 448.84337891 64.46948242 448.31615234 65.1003418 447.77294922 C83.43645153 430.74345063 92.55004084 407.33895935 97.24487305 383.37060547 C102.52487305 383.70060547 107.80487305 384.03060547 113.24487305 384.37060547 C112.72403971 387.07242839 112.20320638 389.7742513 111.68237305 392.47607422 C111.27530104 395.16929172 111.21284801 397.65448228 111.24487305 400.37060547 C117.89702448 400.60016351 124.54814376 400.75696645 131.20336914 400.86499023 C133.46352297 400.91005118 135.72341736 400.97132172 137.98266602 401.04956055 C152.74798154 402.18138435 152.74798154 402.18138435 165.4519043 396.10888672 C166.75934286 394.56496096 168.03146447 392.98947606 169.24487305 391.37060547 C171.00045513 389.89394764 172.76775015 388.43081859 174.55737305 386.99560547 C178.66460835 383.67042485 182.71971131 380.29397914 186.74487305 376.87060547 C191.5942721 372.74936365 196.49648676 368.70068733 201.43237305 364.68310547 C204.56286971 362.10914155 207.65659765 359.49491461 210.74487305 356.87060547 C215.59446686 352.74958913 220.49648111 348.70069193 225.43237305 344.68310547 C228.56287096 342.10914052 231.65655166 339.49486211 234.74487305 336.87060547 C251.11349884 322.96552582 251.11349884 322.96552582 254.85742188 320.99682617 C258.74860575 316.71648411 257.9314791 311.95875687 257.8815918 306.37841797 C257.89196976 305.19972137 257.90234772 304.02102478 257.91304016 302.80661011 C257.94277522 299.03598016 257.93934075 295.26633171 257.93237305 291.49560547 C257.94127033 287.73229605 257.95726005 283.96925063 257.98384094 280.20602417 C257.99873206 277.86437389 258.00257355 275.52262089 257.99406433 273.18093872 C258.02980639 262.95272929 258.02980639 262.95272929 260.24487305 258.37060547 C262.91147362 257.03730518 264.99376048 257.20901088 267.97973633 257.1652832 C269.18083038 257.14533798 270.38192444 257.12539276 271.61941528 257.10484314 C273.57257156 257.0797744 273.57257156 257.0797744 275.56518555 257.05419922 C276.90754843 257.03362922 278.24990484 257.01263274 279.59225464 256.9912262 C283.12675742 256.93601016 286.66131862 256.88659889 290.19592285 256.83837891 C293.80213627 256.78816043 297.40826477 256.73247618 301.0144043 256.67724609 C308.09115503 256.56967027 315.16798403 256.46872907 322.24487305 256.37060547 C322.24487305 261.65060547 322.24487305 266.93060547 322.24487305 272.37060547 C306.40487305 272.37060547 290.56487305 272.37060547 274.24487305 272.37060547 C274.24487305 282.60060547 274.24487305 292.83060547 274.24487305 303.37060547 C279.25801651 299.61074787 284.0860163 295.88817414 288.80737305 291.80810547 C289.93635188 290.85092424 291.06654694 289.89517554 292.19799805 288.94091797 C293.92347995 287.48531913 295.64519291 286.02514425 297.35424805 284.55029297 C300.25989254 282.21778019 302.6930147 281.02529228 306.36987305 280.74560547 C311.6602635 281.59889425 313.67433823 284.23763883 316.71606445 288.36865234 C318.33810106 290.70504146 319.92095788 293.06404986 321.49487305 295.43310547 C329.02419852 306.65364856 329.02419852 306.65364856 337.24487305 317.37060547 C337.57487305 317.37060547 337.90487305 317.37060547 338.24487305 317.37060547 C338.24487305 265.56060547 338.24487305 213.75060547 338.24487305 160.37060547 C227.36487305 160.37060547 116.48487305 160.37060547 2.24487305 160.37060547 C2.24487305 155.09060547 2.24487305 149.81060547 2.24487305 144.37060547 C113.12487305 144.37060547 224.00487305 144.37060547 338.24487305 144.37060547 C342.56294833 103.9971442 342.56294833 103.9971442 335.24487305 66.37060547 C332.16661644 64.43570132 329.60930631 64.29538143 326.0690918 64.33154297 C324.80709961 64.34443359 323.54510742 64.35732422 322.24487305 64.37060547 C322.23085449 65.71638672 322.23085449 65.71638672 322.21655273 67.08935547 C322.17226053 70.45208886 322.11052643 73.81359894 322.03735352 77.17578125 C322.00931268 78.62455763 321.98801493 80.07348219 321.97387695 81.52246094 C321.87937276 90.66416663 321.78302358 98.11163013 315.4987793 105.39404297 C314.94061523 105.84005859 314.38245117 106.28607422 313.80737305 106.74560547 C313.25178711 107.20708984 312.69620117 107.66857422 312.1237793 108.14404297 C305.94299421 112.17890059 299.64439112 111.74292155 292.48974609 111.74121094 C290.44828018 111.74557149 288.40900224 111.78189413 286.36791992 111.81982422 C277.76349591 111.84531881 271.91032846 111.39658726 265.22143555 105.62451172 C264.77541992 105.06634766 264.3294043 104.50818359 263.86987305 103.93310547 C263.17764648 103.09972656 263.17764648 103.09972656 262.47143555 102.24951172 C255.10574825 90.96640474 258.68510142 78.01768517 258.24487305 64.37060547 C184.32487305 64.37060547 110.40487305 64.37060547 34.24487305 64.37060547 C33.91487305 74.60060547 33.58487305 84.83060547 33.24487305 95.37060547 C28.72179612 104.41675931 28.72179612 104.41675931 25.80737305 106.74560547 C25.25178711 107.20708984 24.69620117 107.66857422 24.1237793 108.14404297 C17.94299421 112.17890059 11.64439112 111.74292155 4.48974609 111.74121094 C2.44828018 111.74557149 0.40900224 111.78189413 -1.63208008 111.81982422 C-10.23650409 111.84531881 -16.08967154 111.39658726 -22.77856445 105.62451172 C-23.22458008 105.06634766 -23.6705957 104.50818359 -24.13012695 103.93310547 C-24.82235352 103.09972656 -24.82235352 103.09972656 -25.52856445 102.24951172 C-28.53644392 97.64190018 -29.03461785 93.55122414 -29.16918945 88.10107422 C-29.1885556 87.42007156 -29.20792175 86.73906891 -29.22787476 86.03742981 C-29.28730827 83.87777954 -29.33390895 81.7180749 -29.38012695 79.55810547 C-29.41834023 78.08738003 -29.45739389 76.61667618 -29.49731445 75.14599609 C-29.59297878 71.55439758 -29.6771427 67.96263634 -29.75512695 64.37060547 C-31.63071289 64.33386719 -31.63071289 64.33386719 -33.54418945 64.29638672 C-34.24753418 64.28260986 -34.95087891 64.26883301 -35.67553711 64.25463867 C-38.95825868 64.43769722 -41.07838818 65.52238108 -43.75512695 67.37060547 Z M-13.75512695 192.37060547 C-13.75512695 202.93060547 -13.75512695 213.49060547 -13.75512695 224.37060547 C-3.19512695 224.37060547 7.36487305 224.37060547 18.24487305 224.37060547 C18.24487305 213.81060547 18.24487305 203.25060547 18.24487305 192.37060547 C7.68487305 192.37060547 -2.87512695 192.37060547 -13.75512695 192.37060547 Z M298.80737305 305.30810547 C294.38197231 309.37211961 289.83153016 313.20806502 285.1628418 316.98779297 C281.99069897 319.57816395 278.8644401 322.21743413 275.74487305 324.87060547 C270.89547399 328.99184729 265.99325934 333.04052361 261.05737305 337.05810547 C257.92687638 339.63206939 254.83314844 342.24629633 251.74487305 344.87060547 C246.89527924 348.99162181 241.99326498 353.04051901 237.05737305 357.05810547 C233.92687638 359.63206939 230.83314844 362.24629633 227.74487305 364.87060547 C222.89527924 368.99162181 217.99326498 373.04051901 213.05737305 377.05810547 C209.3740118 380.08664694 205.7405532 383.17193876 202.109375 386.26269531 C197.53257972 390.15032595 192.87949799 393.93457235 188.1940918 397.69091797 C187.55084961 398.24521484 186.90760742 398.79951172 186.24487305 399.37060547 C186.24487305 399.70060547 186.24487305 400.03060547 186.24487305 400.37060547 C198.89591167 401.81870053 207.42676014 397.87677372 218.55737305 392.49560547 C220.31243963 391.6722084 222.06898633 390.85195975 223.8269043 390.03466797 C226.56000801 388.76349568 229.29203522 387.49042285 232.01968384 386.20758057 C240.68023644 382.13629793 249.43092434 378.28762671 258.20727539 374.47390747 C274.88655948 367.22205354 291.48776051 359.80174484 308.0534668 352.29443359 C316.39878263 348.51715182 324.75566319 344.81618296 333.24487305 341.37060547 C327.54657764 332.06369282 321.21569246 323.28568252 314.77807617 314.48095703 C313.40240146 312.5874328 312.04504699 310.68298408 310.69799805 308.76904297 C309.9915918 307.77130859 309.28518555 306.77357422 308.55737305 305.74560547 C307.95538086 304.88708984 307.35338867 304.02857422 306.7331543 303.14404297 C305.99645508 302.26619141 305.99645508 302.26619141 305.24487305 301.37060547 C302.16219732 301.37060547 301.02292657 303.23434737 298.80737305 305.30810547 Z M328.88549805 361.04248047 C328.00931824 361.43253265 327.13313843 361.82258484 326.23040771 362.22445679 C323.31781632 363.52150444 320.40636883 364.8211006 317.49487305 366.12060547 C315.47803659 367.01908367 313.46110836 367.91735589 311.4440918 368.81542969 C307.21389 370.69917189 302.98409548 372.58382402 298.75463867 374.46923828 C289.24410025 378.70855347 279.73109908 382.94232678 270.21691895 387.17346191 C267.27956216 388.48017368 264.34276353 389.78813385 261.40600586 391.09619141 C259.60231841 391.89865305 257.79860866 392.70106459 255.99487305 393.50341797 C254.77124054 394.04897842 254.77124054 394.04897842 253.52288818 394.6055603 C249.7889444 396.26516263 246.05512223 397.89127622 242.24487305 399.37060547 C242.24487305 399.70060547 242.24487305 400.03060547 242.24487305 400.37060547 C253.61498434 400.44015145 264.98504493 400.4934402 276.3553257 400.52604198 C281.63515365 400.54169012 286.91483595 400.56291302 292.19458008 400.59692383 C297.29093226 400.62954739 302.38714444 400.6474649 307.48359299 400.6552372 C309.4268349 400.6607753 311.37006926 400.67158988 313.3132515 400.68779564 C316.03753397 400.70960965 318.76123977 400.71257072 321.4855957 400.71118164 C322.28688904 400.72196747 323.08818237 400.7327533 323.91375732 400.74386597 C328.74993471 400.71722708 332.05016443 400.03989212 336.24487305 397.37060547 C338.79343642 393.29664793 338.50527326 388.8906406 338.44018555 384.22607422 C338.4359407 383.07139397 338.4359407 383.07139397 338.43161011 381.89338684 C338.42046462 379.44813122 338.39537086 377.00324935 338.36987305 374.55810547 C338.35983595 372.89469932 338.35071137 371.2312874 338.3425293 369.56787109 C338.32054378 365.5019731 338.28605319 361.43635253 338.24487305 357.37060547 C335.28891274 357.37060547 331.61818145 359.82045604 328.88549805 361.04248047 Z " fill="#000000" transform="translate(149.755126953125,7.62939453125)"/>
<path d="M0 0 C5.28 0 10.56 0 16 0 C16.495 7.92 16.495 7.92 17 16 C18.629375 16.515625 20.25875 17.03125 21.9375 17.5625 C32.46488013 21.4274945 39.97755237 28.62154576 45.3203125 38.421875 C48.96382917 46.82999039 48.28812396 54.99612634 48 64 C42.72 64 37.44 64 32 64 C31.82984375 62.84242188 31.6596875 61.68484375 31.484375 60.4921875 C31.24035779 58.95300202 30.99552264 57.41394606 30.75 55.875 C30.64042969 55.11445313 30.53085938 54.35390625 30.41796875 53.5703125 C29.1059891 45.5603315 25.44553503 40.73549512 19 36 C13.19058689 33.18421304 7.32445464 33.25819577 1 34 C-5.32129668 36.3490624 -10.21917838 41.26905329 -13.109375 47.32421875 C-15.12147279 53.36933712 -15.06411324 60.52430356 -12.4375 66.375 C-9.10426797 72.04858643 -4.24391895 75.9899713 2 78 C4.22368056 78.39154419 6.4489717 78.69605686 8.68798828 78.98706055 C21.56372061 80.66349649 31.03797802 84.16405236 40 94 C47.96438762 104.88068373 49.1707191 115.90650995 48 129 C45.86555671 139.80002741 39.18839274 148.0309648 30.48828125 154.4921875 C26.21682068 157.08054508 21.75149885 158.49636112 17 160 C16.67 165.28 16.34 170.56 16 176 C10.72 176 5.44 176 0 176 C-0.33 170.72 -0.66 165.44 -1 160 C-2.629375 159.484375 -4.25875 158.96875 -5.9375 158.4375 C-16.46488013 154.5725055 -23.97755237 147.37845424 -29.3203125 137.578125 C-32.96382917 129.17000961 -32.28812396 121.00387366 -32 112 C-26.72 112 -21.44 112 -16 112 C-15.82984375 113.15757812 -15.6596875 114.31515625 -15.484375 115.5078125 C-15.24035779 117.04699798 -14.99552264 118.58605394 -14.75 120.125 C-14.64042969 120.88554687 -14.53085938 121.64609375 -14.41796875 122.4296875 C-13.1059891 130.4396685 -9.44553503 135.26450488 -3 140 C3.04126899 142.89899821 9.89763348 143.13992547 16.34765625 141.34765625 C22.15866114 138.73886215 26.37907756 134.35286696 29.140625 128.640625 C31.10853957 122.59376022 31.05970501 115.46587726 28.4375 109.625 C25.10426797 103.95141357 20.24391895 100.0100287 14 98 C11.77631944 97.60845581 9.5510283 97.30394314 7.31201172 97.01293945 C-5.56372061 95.33650351 -15.03797802 91.83594764 -24 82 C-31.96438762 71.11931627 -33.1707191 60.09349005 -32 47 C-29.86555671 36.19997259 -23.18839274 27.9690352 -14.48828125 21.5078125 C-10.21682068 18.91945492 -5.75149885 17.50363888 -1 16 C-0.67 10.72 -0.34 5.44 0 0 Z " fill="#000000" transform="translate(128,280)"/>
<path d="M0 0 C1.10794922 -0.01260864 2.21589844 -0.02521729 3.35742188 -0.03820801 C4.54916016 -0.03011108 5.74089844 -0.02201416 6.96875 -0.01367188 C8.19658203 -0.01749878 9.42441406 -0.02132568 10.68945312 -0.02526855 C13.28516459 -0.02799029 15.88090336 -0.02061099 18.4765625 -0.00390625 C22.45374599 0.01749738 26.42912282 -0.0037015 30.40625 -0.02929688 C32.92708733 -0.02665365 35.44792353 -0.02152878 37.96875 -0.01367188 C39.16048828 -0.0217688 40.35222656 -0.02986572 41.58007812 -0.03820801 C43.24200195 -0.01929504 43.24200195 -0.01929504 44.9375 0 C45.91138672 0.00318237 46.88527344 0.00636475 47.88867188 0.00964355 C51.27982566 0.67725289 52.44432128 1.74092988 54.46875 4.51757812 C54.97668457 7.09765625 54.97668457 7.09765625 54.98632812 10.04882812 C54.99893677 11.15677734 55.01154541 12.26472656 55.02453613 13.40625 C55.01643921 14.59798828 55.00834229 15.78972656 55 17.01757812 C55.00574036 18.85932617 55.00574036 18.85932617 55.01159668 20.73828125 C55.01431842 23.33399272 55.00693911 25.92973149 54.99023438 28.52539062 C54.96883075 32.50257412 54.99002963 36.47795094 55.015625 40.45507812 C55.01298177 42.97591545 55.00785691 45.49675166 55 48.01757812 C55.00809692 49.20931641 55.01619385 50.40105469 55.02453613 51.62890625 C55.01192749 52.73685547 54.99931885 53.84480469 54.98632812 54.98632812 C54.98314575 55.96021484 54.97996338 56.93410156 54.97668457 57.9375 C54.30907524 61.32865378 53.24539824 62.4931494 50.46875 64.51757812 C47.88867188 65.0255127 47.88867188 65.0255127 44.9375 65.03515625 C43.82955078 65.04776489 42.72160156 65.06037354 41.58007812 65.07336426 C40.38833984 65.06526733 39.19660156 65.05717041 37.96875 65.04882812 C36.12700195 65.05456848 36.12700195 65.05456848 34.24804688 65.0604248 C31.65233541 65.06314654 29.05659664 65.05576724 26.4609375 65.0390625 C22.48375401 65.01765887 18.50837718 65.03885775 14.53125 65.06445312 C12.01041267 65.0618099 9.48957647 65.05668503 6.96875 65.04882812 C5.18114258 65.06097351 5.18114258 65.06097351 3.35742188 65.07336426 C2.24947266 65.06075562 1.14152344 65.04814697 0 65.03515625 C-0.97388672 65.03197388 -1.94777344 65.0287915 -2.95117188 65.0255127 C-6.34232566 64.35790336 -7.50682128 63.29422637 -9.53125 60.51757812 C-10.03918457 57.9375 -10.03918457 57.9375 -10.04882812 54.98632812 C-10.06143677 53.87837891 -10.07404541 52.77042969 -10.08703613 51.62890625 C-10.07893921 50.43716797 -10.07084229 49.24542969 -10.0625 48.01757812 C-10.0663269 46.78974609 -10.07015381 45.56191406 -10.07409668 44.296875 C-10.07681842 41.70116353 -10.06943911 39.10542476 -10.05273438 36.50976562 C-10.03133075 32.53258213 -10.05252963 28.55720531 -10.078125 24.58007812 C-10.07548177 22.0592408 -10.07035691 19.53840459 -10.0625 17.01757812 C-10.07059692 15.82583984 -10.07869385 14.63410156 -10.08703613 13.40625 C-10.07442749 12.29830078 -10.06181885 11.19035156 -10.04882812 10.04882812 C-10.04564575 9.07494141 -10.04246338 8.10105469 -10.03918457 7.09765625 C-8.91711969 1.39807362 -5.396739 0.01763494 0 0 Z M6.46875 16.51757812 C6.46875 27.07757813 6.46875 37.63757813 6.46875 48.51757812 C17.02875 48.51757812 27.58875 48.51757812 38.46875 48.51757812 C38.46875 37.95757812 38.46875 27.39757812 38.46875 16.51757812 C27.90875 16.51757812 17.34875 16.51757812 6.46875 16.51757812 Z " fill="#000000" transform="translate(321.53125,263.482421875)"/>
<path d="M0 0 C1.10794922 -0.01260864 2.21589844 -0.02521729 3.35742188 -0.03820801 C4.54916016 -0.03011108 5.74089844 -0.02201416 6.96875 -0.01367188 C8.19658203 -0.01749878 9.42441406 -0.02132568 10.68945312 -0.02526855 C13.28516459 -0.02799029 15.88090336 -0.02061099 18.4765625 -0.00390625 C22.45374599 0.01749738 26.42912282 -0.0037015 30.40625 -0.02929688 C32.92708733 -0.02665365 35.44792353 -0.02152878 37.96875 -0.01367188 C39.16048828 -0.0217688 40.35222656 -0.02986572 41.58007812 -0.03820801 C43.24200195 -0.01929504 43.24200195 -0.01929504 44.9375 0 C45.91138672 0.00318237 46.88527344 0.00636475 47.88867188 0.00964355 C51.27982566 0.67725289 52.44432128 1.74092988 54.46875 4.51757812 C54.97668457 7.09765625 54.97668457 7.09765625 54.98632812 10.04882812 C54.99893677 11.15677734 55.01154541 12.26472656 55.02453613 13.40625 C55.01643921 14.59798828 55.00834229 15.78972656 55 17.01757812 C55.00574036 18.85932617 55.00574036 18.85932617 55.01159668 20.73828125 C55.01431842 23.33399272 55.00693911 25.92973149 54.99023438 28.52539062 C54.96883075 32.50257412 54.99002963 36.47795094 55.015625 40.45507812 C55.01298177 42.97591545 55.00785691 45.49675166 55 48.01757812 C55.00809692 49.20931641 55.01619385 50.40105469 55.02453613 51.62890625 C55.01192749 52.73685547 54.99931885 53.84480469 54.98632812 54.98632812 C54.98314575 55.96021484 54.97996338 56.93410156 54.97668457 57.9375 C54.30907524 61.32865378 53.24539824 62.4931494 50.46875 64.51757812 C47.88867188 65.0255127 47.88867188 65.0255127 44.9375 65.03515625 C43.82955078 65.04776489 42.72160156 65.06037354 41.58007812 65.07336426 C40.38833984 65.06526733 39.19660156 65.05717041 37.96875 65.04882812 C36.12700195 65.05456848 36.12700195 65.05456848 34.24804688 65.0604248 C31.65233541 65.06314654 29.05659664 65.05576724 26.4609375 65.0390625 C22.48375401 65.01765887 18.50837718 65.03885775 14.53125 65.06445312 C12.01041267 65.0618099 9.48957647 65.05668503 6.96875 65.04882812 C5.18114258 65.06097351 5.18114258 65.06097351 3.35742188 65.07336426 C2.24947266 65.06075562 1.14152344 65.04814697 0 65.03515625 C-0.97388672 65.03197388 -1.94777344 65.0287915 -2.95117188 65.0255127 C-6.34232566 64.35790336 -7.50682128 63.29422637 -9.53125 60.51757812 C-10.03918457 57.9375 -10.03918457 57.9375 -10.04882812 54.98632812 C-10.06143677 53.87837891 -10.07404541 52.77042969 -10.08703613 51.62890625 C-10.07893921 50.43716797 -10.07084229 49.24542969 -10.0625 48.01757812 C-10.0663269 46.78974609 -10.07015381 45.56191406 -10.07409668 44.296875 C-10.07681842 41.70116353 -10.06943911 39.10542476 -10.05273438 36.50976562 C-10.03133075 32.53258213 -10.05252963 28.55720531 -10.078125 24.58007812 C-10.07548177 22.0592408 -10.07035691 19.53840459 -10.0625 17.01757812 C-10.07059692 15.82583984 -10.07869385 14.63410156 -10.08703613 13.40625 C-10.07442749 12.29830078 -10.06181885 11.19035156 -10.04882812 10.04882812 C-10.04564575 9.07494141 -10.04246338 8.10105469 -10.03918457 7.09765625 C-8.91711969 1.39807362 -5.396739 0.01763494 0 0 Z M6.46875 16.51757812 C6.46875 27.07757813 6.46875 37.63757813 6.46875 48.51757812 C17.02875 48.51757812 27.58875 48.51757812 38.46875 48.51757812 C38.46875 37.95757812 38.46875 27.39757812 38.46875 16.51757812 C27.90875 16.51757812 17.34875 16.51757812 6.46875 16.51757812 Z " fill="#000000" transform="translate(417.53125,183.482421875)"/>
<path d="M0 0 C1.10794922 -0.01260864 2.21589844 -0.02521729 3.35742188 -0.03820801 C4.54916016 -0.03011108 5.74089844 -0.02201416 6.96875 -0.01367188 C8.19658203 -0.01749878 9.42441406 -0.02132568 10.68945312 -0.02526855 C13.28516459 -0.02799029 15.88090336 -0.02061099 18.4765625 -0.00390625 C22.45374599 0.01749738 26.42912282 -0.0037015 30.40625 -0.02929688 C32.92708733 -0.02665365 35.44792353 -0.02152878 37.96875 -0.01367188 C39.16048828 -0.0217688 40.35222656 -0.02986572 41.58007812 -0.03820801 C43.24200195 -0.01929504 43.24200195 -0.01929504 44.9375 0 C45.91138672 0.00318237 46.88527344 0.00636475 47.88867188 0.00964355 C51.27982566 0.67725289 52.44432128 1.74092988 54.46875 4.51757812 C54.97668457 7.09765625 54.97668457 7.09765625 54.98632812 10.04882812 C54.99893677 11.15677734 55.01154541 12.26472656 55.02453613 13.40625 C55.01643921 14.59798828 55.00834229 15.78972656 55 17.01757812 C55.00574036 18.85932617 55.00574036 18.85932617 55.01159668 20.73828125 C55.01431842 23.33399272 55.00693911 25.92973149 54.99023438 28.52539062 C54.96883075 32.50257412 54.99002963 36.47795094 55.015625 40.45507812 C55.01298177 42.97591545 55.00785691 45.49675166 55 48.01757812 C55.00809692 49.20931641 55.01619385 50.40105469 55.02453613 51.62890625 C55.01192749 52.73685547 54.99931885 53.84480469 54.98632812 54.98632812 C54.98314575 55.96021484 54.97996338 56.93410156 54.97668457 57.9375 C54.30907524 61.32865378 53.24539824 62.4931494 50.46875 64.51757812 C47.88867188 65.0255127 47.88867188 65.0255127 44.9375 65.03515625 C43.82955078 65.04776489 42.72160156 65.06037354 41.58007812 65.07336426 C40.38833984 65.06526733 39.19660156 65.05717041 37.96875 65.04882812 C36.12700195 65.05456848 36.12700195 65.05456848 34.24804688 65.0604248 C31.65233541 65.06314654 29.05659664 65.05576724 26.4609375 65.0390625 C22.48375401 65.01765887 18.50837718 65.03885775 14.53125 65.06445312 C12.01041267 65.0618099 9.48957647 65.05668503 6.96875 65.04882812 C5.18114258 65.06097351 5.18114258 65.06097351 3.35742188 65.07336426 C2.24947266 65.06075562 1.14152344 65.04814697 0 65.03515625 C-0.97388672 65.03197388 -1.94777344 65.0287915 -2.95117188 65.0255127 C-6.34232566 64.35790336 -7.50682128 63.29422637 -9.53125 60.51757812 C-10.03918457 57.9375 -10.03918457 57.9375 -10.04882812 54.98632812 C-10.06143677 53.87837891 -10.07404541 52.77042969 -10.08703613 51.62890625 C-10.07893921 50.43716797 -10.07084229 49.24542969 -10.0625 48.01757812 C-10.0663269 46.78974609 -10.07015381 45.56191406 -10.07409668 44.296875 C-10.07681842 41.70116353 -10.06943911 39.10542476 -10.05273438 36.50976562 C-10.03133075 32.53258213 -10.05252963 28.55720531 -10.078125 24.58007812 C-10.07548177 22.0592408 -10.07035691 19.53840459 -10.0625 17.01757812 C-10.07059692 15.82583984 -10.07869385 14.63410156 -10.08703613 13.40625 C-10.07442749 12.29830078 -10.06181885 11.19035156 -10.04882812 10.04882812 C-10.04564575 9.07494141 -10.04246338 8.10105469 -10.03918457 7.09765625 C-8.91711969 1.39807362 -5.396739 0.01763494 0 0 Z M6.46875 16.51757812 C6.46875 27.07757813 6.46875 37.63757813 6.46875 48.51757812 C17.02875 48.51757812 27.58875 48.51757812 38.46875 48.51757812 C38.46875 37.95757812 38.46875 27.39757812 38.46875 16.51757812 C27.90875 16.51757812 17.34875 16.51757812 6.46875 16.51757812 Z " fill="#000000" transform="translate(321.53125,183.482421875)"/>
<path d="M0 0 C1.10794922 -0.01260864 2.21589844 -0.02521729 3.35742188 -0.03820801 C4.54916016 -0.03011108 5.74089844 -0.02201416 6.96875 -0.01367188 C8.19658203 -0.01749878 9.42441406 -0.02132568 10.68945312 -0.02526855 C13.28516459 -0.02799029 15.88090336 -0.02061099 18.4765625 -0.00390625 C22.45374599 0.01749738 26.42912282 -0.0037015 30.40625 -0.02929688 C32.92708733 -0.02665365 35.44792353 -0.02152878 37.96875 -0.01367188 C39.16048828 -0.0217688 40.35222656 -0.02986572 41.58007812 -0.03820801 C43.24200195 -0.01929504 43.24200195 -0.01929504 44.9375 0 C45.91138672 0.00318237 46.88527344 0.00636475 47.88867188 0.00964355 C51.27982566 0.67725289 52.44432128 1.74092988 54.46875 4.51757812 C54.97668457 7.09765625 54.97668457 7.09765625 54.98632812 10.04882812 C54.99893677 11.15677734 55.01154541 12.26472656 55.02453613 13.40625 C55.01643921 14.59798828 55.00834229 15.78972656 55 17.01757812 C55.00574036 18.85932617 55.00574036 18.85932617 55.01159668 20.73828125 C55.01431842 23.33399272 55.00693911 25.92973149 54.99023438 28.52539062 C54.96883075 32.50257412 54.99002963 36.47795094 55.015625 40.45507812 C55.01298177 42.97591545 55.00785691 45.49675166 55 48.01757812 C55.00809692 49.20931641 55.01619385 50.40105469 55.02453613 51.62890625 C55.01192749 52.73685547 54.99931885 53.84480469 54.98632812 54.98632812 C54.98314575 55.96021484 54.97996338 56.93410156 54.97668457 57.9375 C54.30907524 61.32865378 53.24539824 62.4931494 50.46875 64.51757812 C47.88867188 65.0255127 47.88867188 65.0255127 44.9375 65.03515625 C43.82955078 65.04776489 42.72160156 65.06037354 41.58007812 65.07336426 C40.38833984 65.06526733 39.19660156 65.05717041 37.96875 65.04882812 C36.12700195 65.05456848 36.12700195 65.05456848 34.24804688 65.0604248 C31.65233541 65.06314654 29.05659664 65.05576724 26.4609375 65.0390625 C22.48375401 65.01765887 18.50837718 65.03885775 14.53125 65.06445312 C12.01041267 65.0618099 9.48957647 65.05668503 6.96875 65.04882812 C5.18114258 65.06097351 5.18114258 65.06097351 3.35742188 65.07336426 C2.24947266 65.06075562 1.14152344 65.04814697 0 65.03515625 C-0.97388672 65.03197388 -1.94777344 65.0287915 -2.95117188 65.0255127 C-6.34232566 64.35790336 -7.50682128 63.29422637 -9.53125 60.51757812 C-10.03918457 57.9375 -10.03918457 57.9375 -10.04882812 54.98632812 C-10.06143677 53.87837891 -10.07404541 52.77042969 -10.08703613 51.62890625 C-10.07893921 50.43716797 -10.07084229 49.24542969 -10.0625 48.01757812 C-10.0663269 46.78974609 -10.07015381 45.56191406 -10.07409668 44.296875 C-10.07681842 41.70116353 -10.06943911 39.10542476 -10.05273438 36.50976562 C-10.03133075 32.53258213 -10.05252963 28.55720531 -10.078125 24.58007812 C-10.07548177 22.0592408 -10.07035691 19.53840459 -10.0625 17.01757812 C-10.07059692 15.82583984 -10.07869385 14.63410156 -10.08703613 13.40625 C-10.07442749 12.29830078 -10.06181885 11.19035156 -10.04882812 10.04882812 C-10.04564575 9.07494141 -10.04246338 8.10105469 -10.03918457 7.09765625 C-8.91711969 1.39807362 -5.396739 0.01763494 0 0 Z M6.46875 16.51757812 C6.46875 27.07757813 6.46875 37.63757813 6.46875 48.51757812 C17.02875 48.51757812 27.58875 48.51757812 38.46875 48.51757812 C38.46875 37.95757812 38.46875 27.39757812 38.46875 16.51757812 C27.90875 16.51757812 17.34875 16.51757812 6.46875 16.51757812 Z " fill="#000000" transform="translate(225.53125,183.482421875)"/>
<path d="M0 0 C7.33231665 -0.09881828 14.66424638 -0.17144618 21.99707031 -0.21972656 C24.49193065 -0.23985164 26.98674378 -0.26715452 29.48144531 -0.30175781 C33.06587368 -0.35023457 36.64967885 -0.3729602 40.234375 -0.390625 C41.35116638 -0.41127014 42.46795776 -0.43191528 43.61859131 -0.45318604 C44.65936829 -0.45348816 45.70014526 -0.45379028 46.77246094 -0.45410156 C47.68735291 -0.46298401 48.60224487 -0.47186646 49.54486084 -0.48101807 C52.87498838 0.17143029 54.01809309 1.26968865 56 4 C56.48101807 6.7588501 56.48101807 6.7588501 56.45410156 9.96191406 C56.45379944 11.16285706 56.45349731 12.36380005 56.45318604 13.60113525 C56.43254089 14.89291687 56.41189575 16.18469849 56.390625 17.515625 C56.38316071 18.85511429 56.37746866 20.19461452 56.37347412 21.53411865 C56.35823213 25.05251436 56.31896418 28.57024515 56.2746582 32.08837891 C56.23367364 35.68122361 56.2154564 39.2741762 56.1953125 42.8671875 C56.15246729 49.91175567 56.0821301 56.95576436 56 64 C50.72 64 45.44 64 40 64 C40 48.16 40 32.32 40 16 C26.8 16 13.6 16 0 16 C0 10.72 0 5.44 0 0 Z " fill="#000000" transform="translate(224,264)"/>
<path d="M0 0 C2 2 2 2 2.1953125 5.6953125 C2.1838709 7.17201668 2.15789907 8.64861801 2.125 10.125 C2.08375 12.72375 2.0425 15.3225 2 18 C-3.61 18 -9.22 18 -15 18 C-15 12.72 -15 7.44 -15 2 C-12.56625 1.62875 -10.1325 1.2575 -7.625 0.875 C-6.86010254 0.75237793 -6.09520508 0.62975586 -5.30712891 0.50341797 C-3.54796705 0.25237727 -1.77268777 0.12349061 0 0 Z " fill="#000000" transform="translate(262,358)"/>
<path d="M0 0 C5.28 0 10.56 0 16 0 C16 5.28 16 10.56 16 16 C10.72 16 5.44 16 0 16 C0 10.72 0 5.44 0 0 Z " fill="#000000" transform="translate(120,152)"/>
</svg>
