<svg width="485" height="280" viewBox="0 0 485 280" fill="none" xmlns="http://www.w3.org/2000/svg">
<path d="M223.696 3.87475C226.299 7.26154 226.157 10.2552 226.113 14.3563C226.12 15.16 226.127 15.9637 226.134 16.7918C226.152 19.4458 226.14 22.0988 226.127 24.7528C226.13 26.5984 226.133 28.444 226.138 30.2895C226.144 34.1565 226.136 38.0231 226.117 41.89C226.094 46.8469 226.107 51.8029 226.131 56.7597C226.146 60.5704 226.141 64.381 226.131 68.1917C226.128 70.0193 226.131 71.847 226.141 73.6746C226.151 76.2292 226.135 78.7823 226.113 81.3368C226.121 82.0922 226.129 82.8477 226.138 83.626C226.082 87.105 225.865 88.9965 223.713 91.7903C221.291 93.5705 219.449 94.2003 216.518 94.8387C215.53 95.0652 214.542 95.2917 213.525 95.525C211.951 95.8698 211.951 95.8698 210.346 96.2215C196.072 99.5986 183.628 104.115 170.596 110.847C169.723 111.297 168.85 111.748 167.95 112.213C163.085 114.801 158.867 117.518 154.775 121.227C151.452 122.933 148.209 122.956 144.596 122.347C142.149 120.686 140.477 119.308 138.471 117.225C137.915 116.681 137.36 116.136 136.787 115.575C134.965 113.777 133.173 111.952 131.381 110.124C130.118 108.861 128.854 107.6 127.588 106.34C124.944 103.699 122.314 101.044 119.694 98.378C116.339 94.9667 112.955 91.5874 109.559 88.2171C106.946 85.6177 104.347 83.0038 101.753 80.3851C100.511 79.1335 99.264 77.886 98.013 76.6428C96.265 74.9007 94.5378 73.1403 92.8146 71.3736C92.0394 70.6119 92.0394 70.6119 91.2485 69.8348C87.7542 66.1931 86.726 63.3708 86.5956 58.3466C89.3642 53.3738 94.3423 50.3293 98.9081 47.0966C99.7085 46.5259 100.509 45.9553 101.333 45.3673C113.473 36.8076 126.171 29.6806 139.596 23.3466C140.23 23.0451 140.865 22.7436 141.519 22.433C157.912 14.7284 207.358 -8.01362 223.696 3.87475ZM105.596 61.3466C110.221 66.901 115.149 72.0318 120.275 77.1239C121.088 77.9352 121.901 78.7466 122.738 79.5825C125.313 82.1521 127.892 84.7181 130.471 87.284C132.226 89.0345 133.981 90.7851 135.736 92.536C140.02 96.8088 144.307 101.079 148.596 105.347C152.597 103.8 156.1 101.93 159.783 99.7215C175.875 90.3819 192.607 84.8438 210.596 80.3465C210.596 59.8866 210.596 39.4266 210.596 18.3466C173.884 18.3466 134.068 39.5787 105.596 61.3466Z" fill="black"/>
<path d="M429.596 88.3465C461.096 116.393 481.231 174.058 483.799 214.55C483.822 216.058 483.822 216.058 483.846 217.597C483.871 218.612 483.897 219.628 483.924 220.675C483.596 223.347 483.596 223.347 482.581 224.988C479.46 227.123 476.152 226.772 472.5 226.751C471.675 226.757 470.851 226.764 470.001 226.771C467.272 226.79 464.543 226.786 461.814 226.78C459.92 226.785 458.026 226.79 456.132 226.796C452.16 226.805 448.189 226.803 444.218 226.793C439.123 226.781 434.029 226.801 428.934 226.831C425.023 226.849 421.111 226.849 417.199 226.843C415.32 226.843 413.441 226.849 411.563 226.861C408.939 226.876 406.316 226.865 403.691 226.848C402.522 226.863 402.522 226.863 401.33 226.878C396.069 226.805 396.069 226.805 393.634 224.447C392.553 222.261 391.915 220.347 391.42 217.96C391.235 217.113 391.05 216.265 390.86 215.392C390.67 214.49 390.479 213.588 390.283 212.659C385.764 192.671 378.346 174.695 366.745 157.749C364.886 154.939 363.677 152.682 362.877 149.386C364.98 140.493 375.771 133.008 382.111 126.663C383.215 125.556 384.319 124.449 385.423 123.341C387.72 121.038 390.02 118.736 392.321 116.436C395.271 113.486 398.213 110.53 401.154 107.572C403.424 105.291 405.699 103.014 407.974 100.739C409.062 99.6502 410.148 98.5597 411.233 97.4676C412.742 95.9479 414.259 94.4347 415.776 92.923C416.637 92.0611 417.497 91.1992 418.384 90.3112C422.148 86.9679 424.895 87.0222 429.596 88.3465ZM419.497 111.123C418.653 111.947 417.809 112.772 416.94 113.622C416.028 114.525 415.117 115.428 414.178 116.358C413.246 117.279 412.314 118.199 411.354 119.147C409.381 121.1 407.412 123.057 405.445 125.016C402.923 127.527 400.383 130.02 397.838 132.508C395.417 134.882 393.018 137.278 390.615 139.671C389.698 140.564 388.78 141.457 387.835 142.376C387 143.217 386.166 144.057 385.306 144.923C384.564 145.658 383.821 146.393 383.056 147.151C381.317 149.277 381.317 149.277 381.795 151.997C382.635 154.463 383.656 156.304 385.096 158.472C394.796 174.211 401.477 191.491 405.151 209.592C405.44 211.362 405.44 211.362 406.596 212.347C408.529 212.441 410.465 212.464 412.401 212.46C413.642 212.46 414.883 212.46 416.162 212.46C417.526 212.455 418.891 212.45 420.256 212.444C421.644 212.442 423.033 212.441 424.422 212.44C428.083 212.436 431.744 212.426 435.405 212.415C439.139 212.405 442.872 212.4 446.605 212.395C453.936 212.385 461.266 212.368 468.596 212.347C467.992 208.897 467.378 205.45 466.764 202.003C466.595 201.041 466.427 200.08 466.254 199.09C460.59 167.484 447.217 137.437 428.596 111.347C428.049 110.554 427.503 109.761 426.939 108.944C426.496 108.417 426.053 107.89 425.596 107.347C422.572 107.347 421.627 109.032 419.497 111.123Z" fill="black"/>
<path d="M65.5956 89.3465C67.7454 91.0492 69.537 92.641 71.4233 94.5907C71.9591 95.1242 72.495 95.6577 73.0471 96.2074C74.8021 97.9608 76.5386 99.7313 78.2753 101.503C79.495 102.729 80.7157 103.955 81.9375 105.179C84.4884 107.741 87.031 110.31 89.5673 112.886C92.8221 116.192 96.0899 119.485 99.3629 122.773C102.483 125.908 105.599 129.048 108.713 132.19C109.309 132.791 109.904 133.392 110.518 134.01C112.196 135.705 113.871 137.403 115.544 139.102C116.044 139.606 116.544 140.11 117.059 140.63C121.411 145.064 121.411 145.064 121.971 148.948C121.443 153.732 119.212 156.763 116.596 160.722C105.482 178.271 97.8481 196.024 93.9755 216.51C92.5777 223.588 92.5777 223.588 89.5956 226.347C86.7686 226.744 84.3285 226.883 81.4999 226.848C80.2629 226.856 80.2629 226.856 79.0009 226.865C76.2717 226.877 73.5435 226.861 70.8144 226.843C68.9201 226.843 67.0259 226.844 65.1316 226.847C61.1603 226.848 57.1894 226.836 53.2182 226.813C48.1234 226.785 43.0293 226.787 37.9345 226.8C34.0226 226.807 30.1108 226.799 26.1989 226.787C24.3202 226.782 22.4415 226.782 20.5628 226.786C17.9386 226.789 15.3154 226.772 12.6913 226.751C11.912 226.755 11.1327 226.76 10.3298 226.764C5.08565 226.692 5.08565 226.692 2.61675 224.953C-2.78268 216.458 3.6176 197.335 5.59563 188.347C13.92 153.561 29.7772 114.108 55.5956 88.3465C59.6726 86.9876 61.6032 87.8369 65.5956 89.3465ZM59.5956 107.347C35.2609 135.753 21.802 175.902 16.5956 212.347C37.0556 212.347 57.5156 212.347 78.5956 212.347C79.9085 209.064 80.9793 206.189 81.8573 202.827C86.6438 184.997 93.2938 167.799 103.596 152.347C103.331 148.569 101.35 146.726 98.7502 144.129C97.9358 143.308 97.1215 142.488 96.2825 141.642C95.3971 140.766 94.5118 139.89 93.5995 138.987C92.6957 138.083 91.7918 137.178 90.8605 136.247C88.9481 134.337 87.0332 132.43 85.113 130.528C82.6484 128.086 80.1951 125.633 77.7453 123.177C75.4102 120.837 73.0672 118.506 70.7245 116.175C69.8412 115.29 68.9578 114.406 68.0477 113.495C67.2302 112.687 66.4127 111.879 65.5705 111.047C64.8496 110.33 64.1287 109.614 63.3859 108.876C61.7347 107.13 61.7347 107.13 59.5956 107.347Z" fill="black"/>
<path d="M279.392 3.11608C281.378 3.45492 283.363 3.80266 285.346 4.15905C286.347 4.3247 287.349 4.49034 288.381 4.66101C293.548 5.56775 298.107 6.47236 302.596 9.34655C304.596 12.3466 304.596 12.3466 304.533 15.8466C303.596 19.3466 303.596 19.3466 301.596 21.3466C293.46 24.0583 282.121 19.8517 274.596 18.3466C274.596 38.8066 274.596 59.2666 274.596 80.3465C277.236 80.6766 279.876 81.0065 282.596 81.3465C298.948 85.1951 314.11 91.8939 328.471 100.553C331.895 102.582 333.505 103.347 337.596 103.347C339.744 101.78 339.744 101.78 341.813 99.5829C343.044 98.3516 343.044 98.3516 344.3 97.0955C345.176 96.1986 346.052 95.3018 346.955 94.3778C347.859 93.4678 348.764 92.5577 349.696 91.6201C352.098 89.2023 354.488 86.7727 356.876 84.3405C359.316 81.86 361.767 79.3909 364.217 76.9208C369.021 72.0737 373.812 67.2141 378.596 62.3466C375.434 59.086 372.239 56.6761 368.408 54.2216C362.706 50.5672 362.706 50.5672 361.596 48.3466C361.221 44.9716 361.221 44.9716 361.596 41.3466C363.658 38.8466 363.658 38.8466 366.596 37.3466C373.174 37.4525 377.024 40.255 382.096 44.0341C382.816 44.5516 383.537 45.0692 384.279 45.6024C396.973 54.8187 396.973 54.8187 398.971 59.7216C398.569 63.6009 398.279 64.106 395.797 66.827C395.157 67.5292 394.516 68.2315 393.857 68.9549C385.924 77.3457 377.792 85.5405 369.663 93.7396C367.275 96.1494 364.898 98.5687 362.529 100.996C359.651 103.945 356.756 106.877 353.848 109.797C352.748 110.907 351.654 112.024 350.567 113.146C349.047 114.712 347.508 116.254 345.961 117.792C345.091 118.674 344.222 119.556 343.326 120.464C339.854 122.858 337.731 122.772 333.596 122.347C331.402 121.464 331.402 121.464 329.537 120.222C328.476 119.538 328.476 119.538 327.394 118.841C326.287 118.101 326.287 118.101 325.158 117.347C323.562 116.329 321.963 115.316 320.361 114.307C319.563 113.804 318.764 113.301 317.941 112.783C305.856 105.382 292.939 100.221 279.127 97.0731C278.181 96.8574 277.235 96.6418 276.26 96.4195C274.394 96.0038 272.525 95.6035 270.652 95.2208C269.794 95.0341 268.936 94.8475 268.053 94.6551C267.289 94.4984 266.526 94.3417 265.739 94.1803C262.8 93.037 261.54 91.8548 259.596 89.3465C259.201 86.5452 259.048 84.1367 259.078 81.3368C259.071 80.5331 259.064 79.7294 259.057 78.9013C259.039 76.2473 259.051 73.5943 259.064 70.9403C259.062 69.0947 259.058 67.2491 259.053 65.4036C259.047 61.5366 259.055 57.67 259.074 53.8031C259.097 48.8462 259.084 43.8902 259.06 38.9334C259.045 35.1227 259.05 31.3121 259.06 27.5014C259.063 25.6738 259.06 23.8461 259.05 22.0185C259.04 19.4639 259.056 16.9108 259.078 14.3563C259.07 13.6009 259.062 12.8454 259.053 12.0671C259.11 8.57021 259.335 6.68618 261.493 3.87434C266.436 0.28312 273.687 2.28351 279.392 3.11608Z" fill="black"/>
<path d="M284.033 138.847C287.596 139.347 287.596 139.347 290.096 141.409C291.977 145.093 291.665 147.493 290.596 151.347C289.162 154.782 287.451 158.053 285.721 161.347C284.715 163.307 283.711 165.267 282.709 167.229C282.193 168.236 281.677 169.244 281.145 170.281C278.648 175.221 276.278 180.22 273.908 185.222C269.584 194.322 265.148 203.358 260.596 212.347C261.26 212.892 261.923 213.437 262.607 213.999C271.164 221.306 276.853 228.75 277.85 240.284C278.234 250.807 276.251 258.648 269.346 266.722C261.547 274.776 254.15 278.34 242.846 278.722C232.891 278.552 223.669 275.599 216.596 268.347C208.835 258.193 206.435 249.075 207.596 236.347C210.107 226.675 215.545 219.176 223.596 213.347C229.345 210.212 234.762 208.187 241.346 208.284C242.145 208.293 242.944 208.302 243.768 208.311C244.371 208.323 244.974 208.335 245.596 208.347C245.812 207.587 246.029 206.827 246.253 206.045C248.128 200.88 250.609 196.076 253.084 191.175C253.624 190.097 254.164 189.019 254.721 187.909C256.446 184.47 258.177 181.033 259.908 177.597C261.062 175.3 262.215 173.003 263.367 170.706C265.975 165.511 268.583 160.316 271.204 155.128C272.139 153.26 273.06 151.384 273.968 149.501C274.615 148.165 274.615 148.165 275.276 146.803C275.652 146.015 276.028 145.227 276.416 144.416C278.546 140.68 279.689 139.478 284.033 138.847ZM227.732 229.288C222.974 235.455 221.78 240.607 222.596 248.347C224.61 255.001 228.547 258.898 234.424 262.452C239.499 264.542 245.937 264.384 251.018 262.401C256.564 259.086 260.899 254.71 262.596 248.347C263.368 241.586 262.846 235.844 258.596 230.347C253.158 225.325 248.51 222.944 241.068 223.077C235.804 223.651 231.424 225.441 227.732 229.288Z" fill="black"/>
<path d="M329.771 16.7684C333.437 17.5188 336.721 18.8376 340.096 20.4091C340.719 20.6834 341.343 20.9577 341.986 21.2404C343.752 22.1317 343.752 22.1317 346.596 24.3466C347.549 27.9301 347.989 30.1961 346.783 33.7216C345.596 35.3466 345.596 35.3466 343.596 36.3466C338.088 36.7608 334.309 35.7529 329.283 33.5341C328.664 33.273 328.044 33.012 327.406 32.743C324.066 31.2743 322.669 30.4565 320.596 27.3466C320.255 24.1471 320.349 21.9704 321.533 18.9716C324.197 16.8724 326.422 16.6134 329.771 16.7684Z" fill="black"/>
<path fill-rule="evenodd" clip-rule="evenodd" d="M149.096 111.347L100.596 60.3465L137.096 33.3465L185.096 16.3465L215.596 13.3465L213.096 85.8465L149.096 111.347Z" fill="black"/>
<path fill-rule="evenodd" clip-rule="evenodd" d="M81.5956 215.847H11.5956V207.847L20.0956 182.347L29.0956 149.847L44.5956 113.347L63.0956 101.347L81.5956 118.347L107.096 140.847L109.596 155.847L92.5956 186.347L81.5956 215.847Z" fill="black"/>
<path fill-rule="evenodd" clip-rule="evenodd" d="M455.096 221.847L402.596 218.847C394.599 201.755 379.078 166.459 377.269 154.347L386.596 135.347L410.096 108.847L428.596 98.3465L449.096 128.847L468.596 175.847L476.096 218.847L455.096 221.847Z" fill="black"/>
<path d="M377.269 154.347C379.078 166.459 394.599 201.755 402.596 218.847L455.096 221.847L476.096 218.847L468.596 175.847L449.096 128.847L428.596 98.3465L410.096 108.847L386.596 135.347L377.269 154.347ZM377.269 154.347C377.155 153.585 377.096 152.915 377.096 152.347M223.696 3.87475C226.299 7.26154 226.157 10.2552 226.113 14.3563C226.12 15.16 226.127 15.9637 226.134 16.7918C226.152 19.4458 226.14 22.0988 226.127 24.7528C226.13 26.5984 226.133 28.444 226.138 30.2895C226.144 34.1565 226.136 38.0231 226.117 41.89C226.094 46.8469 226.107 51.8029 226.131 56.7597C226.146 60.5704 226.141 64.381 226.131 68.1917C226.128 70.0193 226.131 71.847 226.141 73.6746C226.151 76.2292 226.135 78.7823 226.113 81.3368C226.121 82.0922 226.129 82.8477 226.138 83.626C226.082 87.105 225.865 88.9965 223.713 91.7903C221.291 93.5705 219.449 94.2003 216.518 94.8387C215.53 95.0652 214.542 95.2917 213.525 95.525C211.951 95.8698 211.951 95.8698 210.346 96.2215C196.072 99.5986 183.628 104.115 170.596 110.847C169.723 111.297 168.85 111.748 167.95 112.213C163.085 114.801 158.867 117.518 154.775 121.227C151.452 122.933 148.209 122.956 144.596 122.347C142.149 120.686 140.477 119.308 138.471 117.225C137.915 116.681 137.36 116.136 136.787 115.575C134.965 113.777 133.173 111.952 131.381 110.124C130.118 108.861 128.854 107.6 127.588 106.34C124.944 103.699 122.314 101.044 119.694 98.378C116.339 94.9667 112.955 91.5874 109.559 88.2171C106.946 85.6177 104.347 83.0038 101.753 80.3851C100.511 79.1335 99.264 77.886 98.013 76.6428C96.265 74.9007 94.5378 73.1403 92.8146 71.3736C92.0394 70.6119 92.0394 70.6119 91.2485 69.8348C87.7542 66.1931 86.726 63.3708 86.5956 58.3466C89.3642 53.3738 94.3423 50.3293 98.9081 47.0966C99.7085 46.5259 100.509 45.9553 101.333 45.3673C113.473 36.8076 126.171 29.6806 139.596 23.3466C140.23 23.0451 140.865 22.7436 141.519 22.433C157.912 14.7284 207.358 -8.01362 223.696 3.87475ZM105.596 61.3466C110.221 66.901 115.149 72.0318 120.275 77.1239C121.088 77.9352 121.901 78.7466 122.738 79.5825C125.313 82.1521 127.892 84.7181 130.471 87.284C132.226 89.0345 133.981 90.7851 135.736 92.536C140.02 96.8088 144.307 101.079 148.596 105.347C152.597 103.8 156.1 101.93 159.783 99.7215C175.875 90.3819 192.607 84.8438 210.596 80.3465C210.596 59.8866 210.596 39.4266 210.596 18.3466C173.884 18.3466 134.068 39.5787 105.596 61.3466ZM429.596 88.3465C461.096 116.393 481.231 174.058 483.799 214.55C483.822 216.058 483.822 216.058 483.846 217.597C483.871 218.612 483.897 219.628 483.924 220.675C483.596 223.347 483.596 223.347 482.581 224.988C479.46 227.123 476.152 226.772 472.5 226.751C471.675 226.757 470.851 226.764 470.001 226.771C467.272 226.79 464.543 226.786 461.814 226.78C459.92 226.785 458.026 226.79 456.132 226.796C452.16 226.805 448.189 226.803 444.218 226.793C439.123 226.781 434.029 226.801 428.934 226.831C425.023 226.849 421.111 226.849 417.199 226.843C415.32 226.843 413.441 226.849 411.563 226.861C408.939 226.876 406.316 226.865 403.691 226.848C402.522 226.863 402.522 226.863 401.33 226.878C396.069 226.805 396.069 226.805 393.634 224.447C392.553 222.261 391.915 220.347 391.42 217.96C391.235 217.113 391.05 216.265 390.86 215.392C390.67 214.49 390.479 213.588 390.283 212.659C385.764 192.671 378.346 174.695 366.745 157.749C364.886 154.939 363.677 152.682 362.877 149.386C364.98 140.493 375.771 133.008 382.111 126.663C383.215 125.556 384.319 124.449 385.423 123.341C387.72 121.038 390.02 118.736 392.321 116.436C395.271 113.486 398.213 110.53 401.154 107.572C403.424 105.291 405.699 103.014 407.974 100.739C409.062 99.6502 410.148 98.5597 411.233 97.4676C412.742 95.9479 414.259 94.4347 415.776 92.923C416.637 92.0611 417.497 91.1992 418.384 90.3112C422.148 86.9679 424.895 87.0222 429.596 88.3465ZM419.497 111.123C418.653 111.947 417.809 112.772 416.94 113.622C416.028 114.525 415.117 115.428 414.178 116.358C413.246 117.279 412.314 118.199 411.354 119.147C409.381 121.1 407.412 123.057 405.445 125.016C402.923 127.527 400.383 130.02 397.838 132.508C395.417 134.882 393.018 137.278 390.615 139.671C389.698 140.564 388.78 141.457 387.835 142.376C387 143.217 386.166 144.057 385.306 144.923C384.564 145.658 383.821 146.393 383.056 147.151C381.317 149.277 381.317 149.277 381.795 151.997C382.635 154.463 383.656 156.304 385.096 158.472C394.796 174.211 401.477 191.491 405.151 209.592C405.44 211.362 405.44 211.362 406.596 212.347C408.529 212.441 410.465 212.464 412.401 212.46C413.642 212.46 414.883 212.46 416.162 212.46C417.526 212.455 418.891 212.45 420.256 212.444C421.644 212.442 423.033 212.441 424.422 212.44C428.083 212.436 431.744 212.426 435.405 212.415C439.139 212.405 442.872 212.4 446.605 212.395C453.936 212.385 461.266 212.368 468.596 212.347C467.992 208.897 467.378 205.45 466.764 202.003C466.595 201.041 466.427 200.08 466.254 199.09C460.59 167.484 447.217 137.437 428.596 111.347C428.049 110.554 427.503 109.761 426.939 108.944C426.496 108.417 426.053 107.89 425.596 107.347C422.572 107.347 421.627 109.032 419.497 111.123ZM65.5956 89.3465C67.7454 91.0492 69.537 92.641 71.4233 94.5907C71.9591 95.1242 72.495 95.6577 73.0471 96.2074C74.8021 97.9608 76.5386 99.7313 78.2753 101.503C79.495 102.729 80.7157 103.955 81.9375 105.179C84.4884 107.741 87.031 110.31 89.5673 112.886C92.8221 116.192 96.0899 119.485 99.3629 122.773C102.483 125.908 105.599 129.048 108.713 132.19C109.309 132.791 109.904 133.392 110.518 134.01C112.196 135.705 113.871 137.403 115.544 139.102C116.044 139.606 116.544 140.11 117.059 140.63C121.411 145.064 121.411 145.064 121.971 148.948C121.443 153.732 119.212 156.763 116.596 160.722C105.482 178.271 97.8481 196.024 93.9755 216.51C92.5777 223.588 92.5777 223.588 89.5956 226.347C86.7686 226.744 84.3285 226.883 81.4999 226.848C80.2629 226.856 80.2629 226.856 79.0009 226.865C76.2717 226.877 73.5435 226.861 70.8144 226.843C68.9201 226.843 67.0259 226.844 65.1316 226.847C61.1603 226.848 57.1894 226.836 53.2182 226.813C48.1234 226.785 43.0293 226.787 37.9345 226.8C34.0226 226.807 30.1108 226.799 26.1989 226.787C24.3202 226.782 22.4415 226.782 20.5628 226.786C17.9386 226.789 15.3154 226.772 12.6913 226.751C11.912 226.755 11.1327 226.76 10.3298 226.764C5.08565 226.692 5.08565 226.692 2.61675 224.953C-2.78268 216.458 3.6176 197.335 5.59563 188.347C13.92 153.561 29.7772 114.108 55.5956 88.3465C59.6726 86.9876 61.6032 87.8369 65.5956 89.3465ZM59.5956 107.347C35.2609 135.753 21.802 175.902 16.5956 212.347C37.0556 212.347 57.5156 212.347 78.5956 212.347C79.9085 209.064 80.9793 206.189 81.8573 202.827C86.6438 184.997 93.2938 167.799 103.596 152.347C103.331 148.569 101.35 146.726 98.7502 144.129C97.9358 143.308 97.1215 142.488 96.2825 141.642C95.3971 140.766 94.5118 139.89 93.5995 138.987C92.6957 138.083 91.7918 137.178 90.8605 136.247C88.9481 134.337 87.0332 132.43 85.113 130.528C82.6484 128.086 80.1951 125.633 77.7453 123.177C75.4102 120.837 73.0672 118.506 70.7245 116.175C69.8412 115.29 68.9578 114.406 68.0477 113.495C67.2302 112.687 66.4127 111.879 65.5705 111.047C64.8496 110.33 64.1287 109.614 63.3859 108.876C61.7347 107.13 61.7347 107.13 59.5956 107.347ZM279.392 3.11608C281.378 3.45492 283.363 3.80266 285.346 4.15905C286.347 4.3247 287.349 4.49034 288.381 4.66101C293.548 5.56775 298.107 6.47236 302.596 9.34655C304.596 12.3466 304.596 12.3466 304.533 15.8466C303.596 19.3466 303.596 19.3466 301.596 21.3466C293.46 24.0583 282.121 19.8517 274.596 18.3466C274.596 38.8066 274.596 59.2666 274.596 80.3465C277.236 80.6766 279.876 81.0065 282.596 81.3465C298.948 85.1951 314.11 91.8939 328.471 100.553C331.895 102.582 333.505 103.347 337.596 103.347C339.744 101.78 339.744 101.78 341.813 99.5829C343.044 98.3516 343.044 98.3516 344.3 97.0955C345.176 96.1986 346.052 95.3018 346.955 94.3778C347.859 93.4678 348.764 92.5577 349.696 91.6201C352.098 89.2023 354.488 86.7727 356.876 84.3405C359.316 81.86 361.767 79.3909 364.217 76.9208C369.021 72.0737 373.812 67.2141 378.596 62.3466C375.434 59.086 372.239 56.6761 368.408 54.2216C362.706 50.5672 362.706 50.5672 361.596 48.3466C361.221 44.9716 361.221 44.9716 361.596 41.3466C363.658 38.8466 363.658 38.8466 366.596 37.3466C373.174 37.4525 377.024 40.255 382.096 44.0341C382.816 44.5516 383.537 45.0692 384.279 45.6024C396.973 54.8187 396.973 54.8187 398.971 59.7216C398.569 63.6009 398.279 64.106 395.797 66.827C395.157 67.5292 394.516 68.2315 393.857 68.9549C385.924 77.3457 377.792 85.5405 369.663 93.7396C367.275 96.1494 364.898 98.5687 362.529 100.996C359.651 103.945 356.756 106.877 353.848 109.797C352.748 110.907 351.654 112.024 350.567 113.146C349.047 114.712 347.508 116.254 345.961 117.792C345.091 118.674 344.222 119.556 343.326 120.464C339.854 122.858 337.731 122.772 333.596 122.347C331.402 121.464 331.402 121.464 329.537 120.222C328.476 119.538 328.476 119.538 327.394 118.841C326.287 118.101 326.287 118.101 325.158 117.347C323.562 116.329 321.963 115.316 320.361 114.307C319.563 113.804 318.764 113.301 317.941 112.783C305.856 105.382 292.939 100.221 279.127 97.0731C278.181 96.8574 277.235 96.6418 276.26 96.4195C274.394 96.0038 272.525 95.6035 270.652 95.2208C269.794 95.0341 268.936 94.8475 268.053 94.6551C267.289 94.4984 266.526 94.3417 265.739 94.1803C262.8 93.037 261.54 91.8548 259.596 89.3465C259.201 86.5452 259.048 84.1367 259.078 81.3368C259.071 80.5331 259.064 79.7294 259.057 78.9013C259.039 76.2473 259.051 73.5943 259.064 70.9403C259.062 69.0947 259.058 67.2491 259.053 65.4036C259.047 61.5366 259.055 57.67 259.074 53.8031C259.097 48.8462 259.084 43.8902 259.06 38.9334C259.045 35.1227 259.05 31.3121 259.06 27.5014C259.063 25.6738 259.06 23.8461 259.05 22.0185C259.04 19.4639 259.056 16.9108 259.078 14.3563C259.07 13.6009 259.062 12.8454 259.053 12.0671C259.11 8.57021 259.335 6.68618 261.493 3.87434C266.436 0.28312 273.687 2.28351 279.392 3.11608ZM284.033 138.847C287.596 139.347 287.596 139.347 290.096 141.409C291.977 145.093 291.665 147.493 290.596 151.347C289.162 154.782 287.451 158.053 285.721 161.347C284.715 163.307 283.711 165.267 282.709 167.229C282.193 168.236 281.677 169.244 281.145 170.281C278.648 175.221 276.278 180.22 273.908 185.222C269.584 194.322 265.148 203.358 260.596 212.347C261.26 212.892 261.923 213.437 262.607 213.999C271.164 221.306 276.853 228.75 277.85 240.284C278.234 250.807 276.251 258.648 269.346 266.722C261.547 274.776 254.15 278.34 242.846 278.722C232.891 278.552 223.669 275.599 216.596 268.347C208.835 258.193 206.435 249.075 207.596 236.347C210.107 226.675 215.545 219.176 223.596 213.347C229.345 210.212 234.762 208.187 241.346 208.284C242.145 208.293 242.944 208.302 243.768 208.311C244.371 208.323 244.974 208.335 245.596 208.347C245.812 207.587 246.029 206.827 246.253 206.045C248.128 200.88 250.609 196.076 253.084 191.175C253.624 190.097 254.164 189.019 254.721 187.909C256.446 184.47 258.177 181.033 259.908 177.597C261.062 175.3 262.215 173.003 263.367 170.706C265.975 165.511 268.583 160.316 271.204 155.128C272.139 153.26 273.06 151.384 273.968 149.501C274.615 148.165 274.615 148.165 275.276 146.803C275.652 146.015 276.028 145.227 276.416 144.416C278.546 140.68 279.689 139.478 284.033 138.847ZM227.732 229.288C222.974 235.455 221.78 240.607 222.596 248.347C224.61 255.001 228.547 258.898 234.424 262.452C239.499 264.542 245.937 264.384 251.018 262.401C256.564 259.086 260.899 254.71 262.596 248.347C263.368 241.586 262.846 235.844 258.596 230.347C253.158 225.325 248.51 222.944 241.068 223.077C235.804 223.651 231.424 225.441 227.732 229.288ZM329.771 16.7684C333.437 17.5188 336.721 18.8376 340.096 20.4091C340.719 20.6834 341.343 20.9577 341.986 21.2404C343.752 22.1317 343.752 22.1317 346.596 24.3466C347.549 27.9301 347.989 30.1961 346.783 33.7216C345.596 35.3466 345.596 35.3466 343.596 36.3466C338.088 36.7608 334.309 35.7529 329.283 33.5341C328.664 33.273 328.044 33.012 327.406 32.743C324.066 31.2743 322.669 30.4565 320.596 27.3466C320.255 24.1471 320.349 21.9704 321.533 18.9716C324.197 16.8724 326.422 16.6134 329.771 16.7684ZM149.096 111.347L100.596 60.3465L137.096 33.3465L185.096 16.3465L215.596 13.3465L213.096 85.8465L149.096 111.347ZM81.5956 215.847H11.5956V207.847L20.0956 182.347L29.0956 149.847L44.5956 113.347L63.0956 101.347L81.5956 118.347L107.096 140.847L109.596 155.847L92.5956 186.347L81.5956 215.847Z" stroke="black"/>
</svg>
