<?xml version="1.0" encoding="UTF-8"?>
<svg version="1.1" xmlns="http://www.w3.org/2000/svg" width="512" height="512">
<path d="M0 0 C2.60302396 3.38679125 2.46131415 6.38047981 2.4173584 10.48156738 C2.42436768 11.28527267 2.43137695 12.08897797 2.43859863 12.91703796 C2.45618951 15.57106173 2.44455245 18.22401734 2.43103027 20.87805176 C2.43372488 22.72363489 2.43760705 24.56921665 2.44262695 26.41479492 C2.44852347 30.28175378 2.43995417 34.14834292 2.42126465 38.01525879 C2.39847493 42.972124 2.4115972 47.92812293 2.4355545 52.88495636 C2.45000838 56.69568408 2.44540839 60.5062064 2.43504333 64.31694031 C2.43237491 66.14458824 2.43564988 67.97225482 2.44496155 69.79988098 C2.45512054 72.35443518 2.43963627 74.90758644 2.4173584 77.46203613 C2.42545532 78.21748215 2.43355225 78.97292816 2.44189453 79.75126648 C2.38568397 83.23022345 2.16941373 85.12171195 0.01763916 87.91555786 C-2.40502698 89.69578006 -4.24683576 90.32556461 -7.17834473 90.96398926 C-8.1660083 91.19046143 -9.15367187 91.41693359 -10.17126465 91.65026855 C-11.74484741 91.99505249 -11.74484741 91.99505249 -13.35021973 92.34680176 C-27.62368043 95.7238102 -40.06761407 100.24072558 -53.10021973 106.97180176 C-53.97315674 107.4225708 -54.84609375 107.87333984 -55.7454834 108.33776855 C-60.61069845 110.92666288 -64.82919022 113.64311486 -68.92053223 117.35266113 C-72.24335776 119.05873553 -75.48673123 119.08171445 -79.10021973 118.47180176 C-81.54692533 116.81137694 -83.21889315 115.43371491 -85.22497559 113.35046387 C-85.78049103 112.80575439 -86.33600647 112.26104492 -86.90835571 111.6998291 C-88.73093694 109.90216958 -90.52301564 108.07720589 -92.31506348 106.24914551 C-93.577874 104.98664509 -94.84202 103.7254792 -96.10743713 102.46559143 C-98.7518162 99.82397792 -101.38173403 97.16899014 -104.00183105 94.5032959 C-107.35640192 91.09195412 -110.7411948 87.7126396 -114.13695431 84.34235287 C-116.75025661 81.74297978 -119.34858133 79.12904427 -121.94247627 76.51031685 C-123.18506201 75.25871714 -124.4318262 74.01125119 -125.68284416 72.76807976 C-127.43082003 71.02594431 -129.15809533 69.26557067 -130.88122559 67.49890137 C-131.65646828 66.73716362 -131.65646828 66.73716362 -132.44737244 65.96003723 C-135.94164283 62.31831061 -136.96982711 59.49601639 -137.10021973 54.47180176 C-134.33166691 49.4990843 -129.35358504 46.45455721 -124.78771973 43.22180176 C-123.98737305 42.6511499 -123.18702637 42.08049805 -122.36242676 41.49255371 C-110.22306939 32.93287393 -97.52442171 25.8058951 -84.10021973 19.47180176 C-83.46535645 19.17032227 -82.83049316 18.86884277 -82.1763916 18.55822754 C-65.78365742 10.85364247 -16.33832477 -11.88837476 0 0 Z M-118.10021973 57.47180176 C-113.47530594 63.026201 -108.54661008 68.15705845 -103.42053223 73.24914551 C-102.60776825 74.06049454 -101.79500427 74.87184357 -100.95761108 75.70777893 C-98.38250234 78.27732765 -95.80392353 80.84336143 -93.22521973 83.40930176 C-91.46978027 85.15972105 -89.71456956 86.91036976 -87.95959473 88.66125488 C-83.6757789 92.93409478 -79.389115 97.20406075 -75.10021973 101.47180176 C-71.09925639 99.92502672 -67.59559189 98.05564504 -63.91271973 95.84680176 C-47.82066125 86.50718143 -31.08906091 80.96901205 -13.10021973 76.47180176 C-13.10021973 56.01180176 -13.10021973 35.55180176 -13.10021973 14.47180176 C-49.8120211 14.47180176 -89.62778466 35.70396009 -118.10021973 57.47180176 Z " fill="#000000" transform="translate(237.1002197265625,119.5281982421875)"/>
<path d="M0 0 C31.5003412 28.0461303 51.63539176 85.71194703 54.203125 126.203125 C54.22632813 127.71132813 54.22632813 127.71132813 54.25 129.25 C54.27578125 130.26578125 54.3015625 131.2815625 54.328125 132.328125 C54 135 54 135 52.98547363 136.64173889 C49.86467616 138.77667424 46.55649924 138.42514941 42.90429688 138.40405273 C42.07962418 138.41091599 41.25495148 138.41777924 40.4052887 138.42485046 C37.6762679 138.44316891 34.94781915 138.43927422 32.21875 138.43359375 C30.32450167 138.43815282 28.43025499 138.44345757 26.53601074 138.44947815 C22.56479169 138.45841893 18.59377365 138.45597478 14.62255859 138.44604492 C9.52772096 138.43454829 4.43357569 138.45477239 -0.66117096 138.48396206 C-4.57306338 138.50228663 -8.4847887 138.5020392 -12.39671326 138.49632454 C-14.27543612 138.4961709 -16.15417 138.50225063 -18.03285217 138.51461601 C-20.65711227 138.52945554 -23.28007795 138.518902 -25.90429688 138.50170898 C-27.07326759 138.51621094 -27.07326759 138.51621094 -28.26585388 138.53100586 C-33.52622815 138.45865362 -33.52622815 138.45865362 -35.96195984 136.10064697 C-37.04223873 133.91452291 -37.68110686 132.00006597 -38.17578125 129.61328125 C-38.36052002 128.76596436 -38.54525879 127.91864746 -38.7355957 127.0456543 C-38.92597412 126.14371338 -39.11635254 125.24177246 -39.3125 124.3125 C-43.8317512 104.32423211 -51.24956764 86.3485618 -62.85058594 69.40209961 C-64.71008464 66.59203627 -65.91848334 64.33581319 -66.71875 61.0390625 C-64.61561108 52.1464425 -53.82487561 44.66127807 -47.484375 38.31640625 C-46.38048288 37.20929453 -45.27666336 36.10211043 -44.1729126 34.99485779 C-41.87517608 32.69117427 -39.57542393 30.38952507 -37.27441406 28.08911133 C-34.32483185 25.13963151 -31.38223512 22.1832845 -28.44128036 19.22520542 C-26.17134968 16.94417914 -23.89691189 14.66768905 -21.62116241 12.39246941 C-20.53348394 11.30361092 -19.44742658 10.21313057 -18.36302948 9.1210041 C-16.85315653 7.60136328 -15.33711583 6.0881539 -13.81933594 4.57641602 C-12.95886658 3.71452164 -12.09839722 2.85262726 -11.21185303 1.96461487 C-7.4478824 -1.37862384 -4.70037541 -1.32438251 0 0 Z M-10.09838867 22.77612305 C-10.94233688 23.60085617 -11.7862851 24.42558929 -12.6558075 25.27531433 C-13.56732071 26.17832779 -14.47883392 27.08134125 -15.41796875 28.01171875 C-16.34974442 28.93209427 -17.28152008 29.85246979 -18.24153137 30.80073547 C-20.21497723 32.75315328 -22.18370807 34.71020407 -24.15014648 36.66967773 C-26.67229568 39.18085355 -29.21244589 41.67294721 -31.75739574 44.16098309 C-34.17819589 46.53559977 -36.57780978 48.93124986 -38.98046875 51.32421875 C-39.89805466 52.21711105 -40.81564056 53.11000336 -41.7610321 54.029953 C-42.59552383 54.87044693 -43.43001556 55.71094086 -44.28979492 56.5769043 C-45.03210861 57.31192673 -45.7744223 58.04694916 -46.53923035 58.804245 C-48.27844545 60.93059885 -48.27844545 60.93059885 -47.80024719 63.6509552 C-46.96033289 66.11643879 -45.93991667 67.95712545 -44.5 70.125 C-34.80006663 85.86407457 -28.11815179 103.14493273 -24.44506836 121.24560547 C-24.15534803 123.01515833 -24.15534803 123.01515833 -23 124 C-21.06693502 124.09396057 -19.13041162 124.11743517 -17.19506836 124.11352539 C-15.95385727 124.11344986 -14.71264618 124.11337433 -13.43382263 124.11329651 C-12.0691626 124.10818911 -10.70450298 124.1029731 -9.33984375 124.09765625 C-7.95121817 124.095792 -6.56259193 124.09436813 -5.17396545 124.09336853 C-1.51278885 124.08954387 2.1483483 124.07971403 5.80950928 124.06866455 C9.54292263 124.05844932 13.27634234 124.05387067 17.00976562 124.04882812 C24.33986177 124.03809171 31.66992536 124.02101591 39 124 C38.39588508 120.55090116 37.78265442 117.10347933 37.16796875 113.65625 C36.99970581 112.69493164 36.83144287 111.73361328 36.65808105 110.74316406 C30.99426282 79.13733197 17.6212016 49.09052686 -1 23 C-1.5465625 22.20722656 -2.093125 21.41445312 -2.65625 20.59765625 C-3.0996875 20.07042969 -3.543125 19.54320312 -4 19 C-7.02366435 19 -7.96865624 20.68544476 -10.09838867 22.77612305 Z " fill="#000000" transform="translate(443,204)"/>
<path d="M0 0 C2.14976025 1.70260707 3.94138618 3.29442089 5.82763672 5.24414062 C6.36349899 5.77766647 6.89936127 6.31119232 7.45146179 6.86088562 C9.20645063 8.61426921 10.94300637 10.38474696 12.6796875 12.15625 C13.89937674 13.3827331 15.12010643 14.60818231 16.34182739 15.8326416 C18.89272495 18.39419271 21.43540907 20.96351724 23.97167969 23.53955078 C27.22651717 26.84541573 30.49423603 30.13814746 33.76722527 33.42603302 C36.88780575 36.56138061 40.00312778 39.70192738 43.1171875 42.84375 C43.71292446 43.44439774 44.30866142 44.04504547 44.92245102 44.66389465 C46.60073973 46.35842016 48.27537851 48.05646029 49.94873047 49.75585938 C50.4484285 50.25981735 50.94812653 50.76377533 51.46296692 51.28300476 C55.81515417 55.71763205 55.81515417 55.71763205 56.375 59.6015625 C55.8471594 64.38511796 53.61643159 67.4163813 51 71.375 C39.88636491 88.92491675 32.25244041 106.67748226 28.37988281 127.16357422 C26.98210092 134.24125738 26.98210092 134.24125738 24 137 C21.17296238 137.39717581 18.73283647 137.53679913 15.90429688 137.50170898 C14.66728783 137.50981346 14.66728783 137.50981346 13.4052887 137.51808167 C10.67607871 137.5306012 7.94791701 137.51405697 5.21875 137.49609375 C3.32450302 137.49624866 1.43025571 137.49773637 -0.46398926 137.50050354 C-4.43528238 137.50188898 -8.40621498 137.48930535 -12.37744141 137.46655273 C-17.47220289 137.43816768 -22.56636513 137.4409035 -27.66117096 137.45364285 C-31.57307061 137.46059227 -35.48483134 137.45281917 -39.39671326 137.44038582 C-41.27542081 137.43586415 -43.15414324 137.43554074 -45.03285217 137.43945122 C-47.65697891 137.44235624 -50.280275 137.42589088 -52.90429688 137.40405273 C-53.68361069 137.40855438 -54.4629245 137.41305603 -55.26585388 137.41769409 C-60.50997458 137.34504836 -60.50997458 137.34504836 -62.97888184 135.60658264 C-68.37830589 127.11136508 -61.97802729 107.98845135 -60 99 C-51.67567489 64.21398065 -35.81846493 24.76147052 -10 -1 C-5.92307449 -2.35897517 -3.99244902 -1.50964075 0 0 Z M-6 18 C-30.33472295 46.40666862 -43.79365194 86.55556358 -49 123 C-28.54 123 -8.08 123 13 123 C14.31285384 119.71786541 15.38369422 116.84232631 16.26171875 113.48046875 C21.04822184 95.65032189 27.69820565 78.45269153 38 63 C37.73562716 59.22286854 35.75432734 57.37974049 33.15454102 54.78222656 C32.3402211 53.96167786 31.52590118 53.14112915 30.68690491 52.29571533 C29.80151535 51.41953552 28.91612579 50.54335571 28.00390625 49.640625 C27.1000267 48.73624695 26.19614716 47.8318689 25.26487732 46.90008545 C23.35251903 44.99006832 21.43752962 43.08323593 19.51733398 41.18115234 C17.05277704 38.73933042 14.5994982 36.28653793 12.14965916 33.82995987 C9.81461807 31.4907817 7.47155555 29.15967998 5.12890625 26.828125 C4.24554092 25.94384827 3.3621756 25.05957153 2.45204163 24.14849854 C1.63456955 23.34055847 0.81709747 22.53261841 -0.02514648 21.70019531 C-0.74604965 20.98389954 -1.46695282 20.26760376 -2.20970154 19.52960205 C-3.86097226 17.7834729 -3.86097226 17.7834729 -6 18 Z " fill="#000000" transform="translate(79,205)"/>
<path d="M0 0 C1.98590063 0.33883285 3.97029997 0.68657863 5.953125 1.04296875 C6.95472656 1.20861328 7.95632813 1.37425781 8.98828125 1.54492188 C14.15502579 2.45166843 18.7144674 3.35627993 23.203125 6.23046875 C25.203125 9.23046875 25.203125 9.23046875 25.140625 12.73046875 C24.203125 16.23046875 24.203125 16.23046875 22.203125 18.23046875 C14.06788893 20.94221411 2.72886068 16.73561589 -4.796875 15.23046875 C-4.796875 35.69046875 -4.796875 56.15046875 -4.796875 77.23046875 C-2.156875 77.56046875 0.483125 77.89046875 3.203125 78.23046875 C19.55525368 82.07900004 34.71793663 88.77784693 49.07836914 97.43652344 C52.50247605 99.46582284 54.11236244 100.23046875 58.203125 100.23046875 C60.35123892 98.66408338 60.35123892 98.66408338 62.42089844 96.46679688 C63.6517215 95.23552063 63.6517215 95.23552063 64.90740967 93.97937012 C65.78358948 93.08254517 66.65976929 92.18572021 67.5625 91.26171875 C68.46687805 90.35168091 69.3712561 89.44164307 70.30303955 88.50402832 C72.70558562 86.08622034 75.09587773 83.65664164 77.48382568 81.22442627 C79.92334406 78.7439672 82.37424596 76.27481346 84.82421875 73.8046875 C89.62839847 68.95762724 94.419729 64.09803847 99.203125 59.23046875 C96.04174492 55.96993649 92.84680454 53.56003689 89.015625 51.10546875 C83.31344528 47.45110932 83.31344528 47.45110932 82.203125 45.23046875 C81.828125 41.85546875 81.828125 41.85546875 82.203125 38.23046875 C84.265625 35.73046875 84.265625 35.73046875 87.203125 34.23046875 C93.78167217 34.33644287 97.63112371 37.13891949 102.703125 40.91796875 C103.42371094 41.43552734 104.14429688 41.95308594 104.88671875 42.48632812 C117.58067988 51.70264891 117.58067988 51.70264891 119.578125 56.60546875 C119.176814 60.48480842 118.886613 60.98987667 116.40429688 63.7109375 C115.76403564 64.4131543 115.12377441 65.11537109 114.46411133 65.83886719 C106.53161344 74.22961865 98.39963277 82.42444821 90.27001953 90.62353516 C87.8826116 93.03335853 85.5053851 95.45260255 83.13623047 97.88037109 C80.25825286 100.8293568 77.36351236 103.7608549 74.45597839 106.68069458 C73.35595954 107.79110347 72.26195593 108.90750599 71.17427063 110.02999878 C69.65496153 111.59545769 68.11504957 113.13743539 66.56835938 114.67578125 C65.69900757 115.55766113 64.82965576 116.43954102 63.93395996 117.34814453 C60.46144056 119.74170088 58.33843724 119.65611066 54.203125 119.23046875 C52.01000977 118.34765625 52.01000977 118.34765625 50.14453125 117.10546875 C49.08359253 116.42218506 49.08359253 116.42218506 48.0012207 115.72509766 C46.89460083 114.98525635 46.89460083 114.98525635 45.765625 114.23046875 C44.16969492 113.21268383 42.57067343 112.19973173 40.96875 111.19140625 C40.17017578 110.68834961 39.37160156 110.18529297 38.54882812 109.66699219 C26.46388779 102.26609825 13.54665144 97.10527771 -0.265625 93.95703125 C-1.21155518 93.74135498 -2.15748535 93.52567871 -3.13208008 93.3034668 C-4.99817465 92.88769652 -6.86781579 92.48746234 -8.7409668 92.10473633 C-9.59859619 91.91806396 -10.45622559 91.7313916 -11.33984375 91.5390625 C-12.10321045 91.38236084 -12.86657715 91.22565918 -13.65307617 91.06420898 C-16.59291093 89.92088411 -17.85221221 88.73869 -19.796875 86.23046875 C-20.19157024 83.4290906 -20.34446241 81.02058089 -20.31445312 78.22070312 C-20.3214624 77.41699783 -20.32847168 76.61329254 -20.33569336 75.78523254 C-20.35328424 73.13120878 -20.34164718 70.47825317 -20.328125 67.82421875 C-20.33081961 65.97863561 -20.33470177 64.13305386 -20.33972168 62.28747559 C-20.34561819 58.42051673 -20.3370489 54.55392759 -20.31835938 50.68701172 C-20.29556966 45.73014651 -20.30869193 40.77414758 -20.33264923 35.81731415 C-20.34710311 32.00658643 -20.34250312 28.19606411 -20.33213806 24.3853302 C-20.32946964 22.55768227 -20.33274461 20.73001569 -20.34205627 18.90238953 C-20.35221526 16.34783532 -20.336731 13.79468407 -20.31445312 11.24023438 C-20.32255005 10.48478836 -20.33064697 9.72934235 -20.33898926 8.95100403 C-20.28248921 5.45413026 -20.05748537 3.57009611 -17.89984131 0.758255 C-12.95660109 -2.8329649 -5.70527758 -0.8325747 0 0 Z " fill="#000000" transform="translate(292.796875,118.76953125)"/>
<path d="M0 0 C3.5625 0.5 3.5625 0.5 6.0625 2.5625 C7.94346174 6.24605008 7.63206411 8.64620981 6.5625 12.5 C5.12887946 15.93511824 3.41794338 19.20635704 1.6875 22.5 C0.68169767 24.45996564 -0.32214751 26.42093665 -1.32421875 28.3828125 C-1.84032715 29.38989258 -2.35643555 30.39697266 -2.88818359 31.43457031 C-5.38493782 36.37457127 -7.75504496 41.37324643 -10.125 46.375 C-14.44930602 55.47535927 -18.88475028 64.51190671 -23.4375 73.5 C-22.77363281 74.04527344 -22.10976563 74.59054687 -21.42578125 75.15234375 C-12.86922872 82.45976452 -7.18054649 89.90352373 -6.18359375 101.4375 C-5.79891815 111.9602391 -7.7822775 119.80101791 -14.6875 127.875 C-22.48611296 135.92930518 -29.88329046 139.49326743 -41.1875 139.875 C-51.14180035 139.70592483 -60.363691 136.75289277 -67.4375 129.5 C-75.19839352 119.34641994 -77.59850842 110.22861666 -76.4375 97.5 C-73.92584049 87.82881623 -68.48847245 80.32952662 -60.4375 74.5 C-54.68857307 71.36593803 -49.27136445 69.34067846 -42.6875 69.4375 C-41.88828125 69.44652344 -41.0890625 69.45554687 -40.265625 69.46484375 C-39.66234375 69.47644531 -39.0590625 69.48804688 -38.4375 69.5 C-38.2206958 68.74041992 -38.0038916 67.98083984 -37.78051758 67.19824219 C-35.90474322 62.03295769 -33.42428691 57.22920742 -30.94921875 52.328125 C-30.40900589 51.25052917 -29.86879303 50.17293335 -29.31221008 49.06268311 C-27.58689674 45.62322089 -25.85605076 42.18657761 -24.125 38.75 C-22.97163571 36.45331052 -21.81863703 34.15643739 -20.66601562 31.859375 C-18.05859125 26.66446518 -15.45052628 21.46989216 -12.82943726 16.28186035 C-11.89430649 14.41295197 -10.97310171 12.53701624 -10.06533813 10.65466309 C-9.4177504 9.31885193 -9.4177504 9.31885193 -8.75708008 7.95605469 C-8.3809407 7.16833679 -8.00480133 6.3806189 -7.61726379 5.56903076 C-5.48701428 1.83306956 -4.34431003 0.63189964 0 0 Z M-56.30078125 90.44140625 C-61.05954333 96.60848933 -62.25283795 101.7600313 -61.4375 109.5 C-59.42286786 116.15404217 -55.48596167 120.05189177 -49.609375 123.60546875 C-44.53431621 125.69573577 -38.09608178 125.5377045 -33.015625 123.5546875 C-27.46894183 120.23918892 -23.13451177 115.86379414 -21.4375 109.5 C-20.66557448 102.73980376 -21.18753263 96.99788022 -25.4375 91.5 C-30.87515888 86.47809774 -35.52265524 84.09735644 -42.96484375 84.23046875 C-48.2286342 84.80424686 -52.60895666 86.59478818 -56.30078125 90.44140625 Z " fill="#000000" transform="translate(297.4375,254.5)"/>
<path d="M0 0 C3.66573433 0.75038545 6.94951609 2.06920514 10.32421875 3.640625 C10.9478833 3.91495361 11.57154785 4.18928223 12.21411133 4.47192383 C13.98046875 5.36328125 13.98046875 5.36328125 16.82421875 7.578125 C17.77749699 11.16167299 18.21778348 13.42770503 17.01171875 16.953125 C15.82421875 18.578125 15.82421875 18.578125 13.82421875 19.578125 C8.31693695 19.99235951 4.537804 18.98444459 -0.48828125 16.765625 C-1.10767578 16.50458984 -1.72707031 16.24355469 -2.36523438 15.97460938 C-5.7052396 14.50587744 -7.10245555 13.68811355 -9.17578125 10.578125 C-9.51615105 7.37864887 -9.42202367 5.20193914 -8.23828125 2.203125 C-5.57392806 0.10393764 -3.34965479 -0.15502535 0 0 Z " fill="#000000" transform="translate(343.17578125,132.421875)"/>
</svg>
