<svg xmlns="http://www.w3.org/2000/svg" width="24" height="24" viewBox="0 0 24 24"><path fill="currentColor" d="M12.003 16.616q-.293 0-.494-.199q-.201-.198-.201-.491t.198-.494t.491-.201t.494.198t.201.492t-.198.494t-.491.2m-.004-3.769q-.212 0-.356-.143t-.143-.357V4.5q0-.213.144-.356T12.001 4t.356.144t.143.356v7.846q0 .213-.144.357t-.357.143M5.616 20q-.691 0-1.153-.462T4 18.384v-1.923q0-.212.144-.356t.357-.143t.356.143t.143.357v1.923q0 .23.192.423t.423.192h12.77q.23 0 .423-.192t.192-.423v-1.923q0-.213.144-.357t.357-.143t.356.143t.143.357v1.923q0 .69-.462 1.153T18.384 20z"/></svg>